<svg width="505" height="289" viewBox="0 0 505 289" fill="none" xmlns="http://www.w3.org/2000/svg">
<g filter="url(#filter0_d)">
<rect x="20" y="10" width="375.626" height="258.367" rx="5" fill="white"/>
</g>
<mask id="mask0" mask-type="alpha" maskUnits="userSpaceOnUse" x="20" y="10" width="376" height="259">
<path d="M20 13.3818C20 11.5141 21.5141 10 23.3818 10H391.994C393.862 10 395.376 11.5141 395.376 13.3818V264.985C395.376 266.853 393.862 268.367 391.994 268.367H23.3818C21.5141 268.367 20 266.853 20 264.985V13.3818Z" fill="white"/>
</mask>
<g mask="url(#mask0)">
<path d="M20 10H395.376V35.7014H20V10Z" fill="#D7DAE2"/>
<path fill-rule="evenodd" clip-rule="evenodd" d="M37.586 26.9088C39.8272 26.9088 41.6441 25.092 41.6441 22.8507C41.6441 20.6095 39.8272 18.7926 37.586 18.7926C35.3447 18.7926 33.5278 20.6095 33.5278 22.8507C33.5278 25.092 35.3447 26.9088 37.586 26.9088Z" fill="#BABDC9"/>
<path fill-rule="evenodd" clip-rule="evenodd" d="M37.586 26.2325C39.4537 26.2325 40.9677 24.7184 40.9677 22.8507C40.9677 20.983 39.4537 19.469 37.586 19.469C35.7183 19.469 34.2042 20.983 34.2042 22.8507C34.2042 24.7184 35.7183 26.2325 37.586 26.2325ZM41.6441 22.8507C41.6441 25.092 39.8272 26.9088 37.586 26.9088C35.3447 26.9088 33.5278 25.092 33.5278 22.8507C33.5278 20.6095 35.3447 18.7926 37.586 18.7926C39.8272 18.7926 41.6441 20.6095 41.6441 22.8507Z" fill="#BABDC9"/>
<path fill-rule="evenodd" clip-rule="evenodd" d="M51.1123 26.9088C53.3536 26.9088 55.1704 25.092 55.1704 22.8507C55.1704 20.6095 53.3536 18.7926 51.1123 18.7926C48.8711 18.7926 47.0542 20.6095 47.0542 22.8507C47.0542 25.092 48.8711 26.9088 51.1123 26.9088Z" fill="#BABDC9"/>
<path fill-rule="evenodd" clip-rule="evenodd" d="M51.1123 26.2325C52.98 26.2325 54.4941 24.7184 54.4941 22.8507C54.4941 20.983 52.98 19.469 51.1123 19.469C49.2446 19.469 47.7306 20.983 47.7306 22.8507C47.7306 24.7184 49.2446 26.2325 51.1123 26.2325ZM55.1704 22.8507C55.1704 25.092 53.3536 26.9088 51.1123 26.9088C48.8711 26.9088 47.0542 25.092 47.0542 22.8507C47.0542 20.6095 48.8711 18.7926 51.1123 18.7926C53.3536 18.7926 55.1704 20.6095 55.1704 22.8507Z" fill="#BABDC9"/>
<path fill-rule="evenodd" clip-rule="evenodd" d="M64.6397 26.9088C66.8809 26.9088 68.6978 25.092 68.6978 22.8507C68.6978 20.6095 66.8809 18.7926 64.6397 18.7926C62.3984 18.7926 60.5815 20.6095 60.5815 22.8507C60.5815 25.092 62.3984 26.9088 64.6397 26.9088Z" fill="#BABDC9"/>
<path fill-rule="evenodd" clip-rule="evenodd" d="M64.6397 26.2325C66.5074 26.2325 68.0214 24.7184 68.0214 22.8507C68.0214 20.983 66.5074 19.469 64.6397 19.469C62.772 19.469 61.2579 20.983 61.2579 22.8507C61.2579 24.7184 62.772 26.2325 64.6397 26.2325ZM68.6978 22.8507C68.6978 25.092 66.8809 26.9088 64.6397 26.9088C62.3984 26.9088 60.5815 25.092 60.5815 22.8507C60.5815 20.6095 62.3984 18.7926 64.6397 18.7926C66.8809 18.7926 68.6978 20.6095 68.6978 22.8507Z" fill="#BABDC9"/>
<path d="M34.6909 64.7847H39.4696C42.1731 64.7847 43.4989 63.407 43.4989 61.5681C43.4989 59.7812 42.2307 58.7321 40.9741 58.6686V58.5534C42.127 58.2824 43.0377 57.4754 43.0377 56.0401C43.0377 54.282 41.7696 52.9792 39.2102 52.9792H34.6909V64.7847ZM36.8295 62.9977V59.5391H39.1871C40.5072 59.5391 41.3257 60.3461 41.3257 61.401C41.3257 62.3406 40.6801 62.9977 39.1295 62.9977H36.8295ZM36.8295 58V54.7431H38.9911C40.2478 54.7431 40.8992 55.406 40.8992 56.3168C40.8992 57.3544 40.0576 58 38.945 58H36.8295Z" fill="#2C354D"/>
<path d="M45.1048 64.7847H47.1915V59.5794C47.1915 58.4554 48.0389 57.6599 49.186 57.6599C49.5376 57.6599 49.9757 57.7233 50.1544 57.7809V55.8614C49.9642 55.8268 49.6356 55.8038 49.405 55.8038C48.3905 55.8038 47.5431 56.3802 47.2203 57.4062H47.1281V55.9306H45.1048V64.7847Z" fill="#2C354D"/>
<path d="M52.9449 68.0876C54.5704 68.0876 55.51 67.246 56.0115 65.8568L59.5681 55.9421L57.3373 55.9306L55.291 62.6172H55.1987L53.1581 55.9306H50.9446L54.1554 64.9691L53.9767 65.4476C53.5789 66.4275 52.9794 66.5024 52.0687 66.243L51.5845 67.8628C51.8669 67.9839 52.3742 68.0876 52.9449 68.0876Z" fill="#2C354D"/>
<path d="M63.1483 64.9633C64.5375 64.9633 65.3676 64.312 65.7481 63.5684H65.8172V64.7847H67.8232V58.8589C67.8232 56.5185 65.9152 55.8153 64.2263 55.8153C62.3644 55.8153 60.9348 56.6453 60.4737 58.2594L62.422 58.5361C62.6295 57.9308 63.2175 57.412 64.2378 57.412C65.2062 57.412 65.7365 57.9077 65.7365 58.7782V58.8128C65.7365 59.4123 65.1082 59.4411 63.5461 59.6082C61.8283 59.7927 60.1854 60.3057 60.1854 62.3002C60.1854 64.041 61.4594 64.9633 63.1483 64.9633ZM63.6902 63.43C62.8198 63.43 62.1972 63.0323 62.1972 62.2656C62.1972 61.4644 62.8947 61.13 63.8285 60.9975C64.3761 60.9225 65.4714 60.7842 65.7423 60.5651V61.6085C65.7423 62.5942 64.9468 63.43 63.6902 63.43Z" fill="#2C354D"/>
<path d="M71.8459 59.5967C71.8459 58.317 72.6183 57.5792 73.7193 57.5792C74.7972 57.5792 75.4428 58.2882 75.4428 59.4699V64.7847H77.5295V59.1471C77.5353 57.0258 76.3248 55.8153 74.4975 55.8153C73.1717 55.8153 72.2609 56.4494 71.8574 57.4351H71.7536V55.9306H69.7591V64.7847H71.8459V59.5967Z" fill="#2C354D"/>
<path d="M93.5498 56.9624C93.1866 54.3396 91.1691 52.8178 88.5521 52.8178C85.4681 52.8178 83.1451 55.0659 83.1451 58.8819C83.1451 62.6922 85.4393 64.9461 88.5521 64.9461C91.3593 64.9461 93.2212 63.1303 93.5498 60.8764L91.3939 60.8649C91.123 62.2483 89.9931 63.0265 88.5809 63.0265C86.6671 63.0265 85.2952 61.5912 85.2952 58.8819C85.2952 56.2188 86.6556 54.7373 88.5866 54.7373C90.022 54.7373 91.146 55.5501 91.3939 56.9624H93.5498Z" fill="#2C354D"/>
<path d="M95.2537 64.7847H97.3404V59.5794C97.3404 58.4554 98.1877 57.6599 99.3348 57.6599C99.6865 57.6599 100.125 57.7233 100.303 57.7809V55.8614C100.113 55.8268 99.7845 55.8038 99.5539 55.8038C98.5394 55.8038 97.692 56.3802 97.3692 57.4062H97.277V55.9306H95.2537V64.7847Z" fill="#2C354D"/>
<path d="M103.901 64.9633C105.29 64.9633 106.12 64.312 106.5 63.5684H106.57V64.7847H108.576V58.8589C108.576 56.5185 106.668 55.8153 104.979 55.8153C103.117 55.8153 101.687 56.6453 101.226 58.2594L103.174 58.5361C103.382 57.9308 103.97 57.412 104.99 57.412C105.959 57.412 106.489 57.9077 106.489 58.7782V58.8128C106.489 59.4123 105.861 59.4411 104.298 59.6082C102.581 59.7927 100.938 60.3057 100.938 62.3002C100.938 64.041 102.212 64.9633 103.901 64.9633ZM104.443 63.43C103.572 63.43 102.95 63.0323 102.95 62.2656C102.95 61.4644 103.647 61.13 104.581 60.9975C105.129 60.9225 106.224 60.7842 106.495 60.5651V61.6085C106.495 62.5942 105.699 63.43 104.443 63.43Z" fill="#2C354D"/>
<path d="M112.598 59.5967C112.598 58.317 113.371 57.5792 114.472 57.5792C115.55 57.5792 116.195 58.2882 116.195 59.4699V64.7847H118.282V59.1471C118.288 57.0258 117.077 55.8153 115.25 55.8153C113.924 55.8153 113.013 56.4494 112.61 57.4351H112.506V55.9306H110.512V64.7847H112.598V59.5967Z" fill="#2C354D"/>
<path d="M127.239 58.2709C126.951 56.7722 125.752 55.8153 123.676 55.8153C121.544 55.8153 120.091 56.8644 120.097 58.5015C120.091 59.7927 120.887 60.6458 122.587 60.9975L124.097 61.3145C124.91 61.4932 125.291 61.8218 125.291 62.3233C125.291 62.9285 124.633 63.3839 123.642 63.3839C122.685 63.3839 122.062 62.9689 121.884 62.1734L119.849 62.3694C120.108 63.9949 121.474 64.9576 123.648 64.9576C125.861 64.9576 127.423 63.8105 127.429 62.133C127.423 60.8706 126.611 60.0982 124.939 59.7351L123.429 59.4123C122.529 59.2105 122.172 58.8992 122.178 58.3862C122.172 57.7867 122.835 57.3717 123.705 57.3717C124.668 57.3717 125.175 57.8962 125.337 58.4784L127.239 58.2709Z" fill="#2C354D"/>
<path d="M133.409 55.9306H131.662V53.8093H129.575V55.9306H128.319V57.5446H129.575V62.4674C129.564 64.1333 130.774 64.9518 132.342 64.9057C132.936 64.8884 133.345 64.7731 133.57 64.6982L133.218 63.0669C133.103 63.0957 132.867 63.1476 132.607 63.1476C132.083 63.1476 131.662 62.9631 131.662 62.1215V57.5446H133.409V55.9306Z" fill="#2C354D"/>
<path d="M138.759 64.9576C141.353 64.9576 143.001 63.1303 143.001 60.3922C143.001 57.6484 141.353 55.8153 138.759 55.8153C136.165 55.8153 134.516 57.6484 134.516 60.3922C134.516 63.1303 136.165 64.9576 138.759 64.9576ZM138.77 63.2859C137.335 63.2859 136.632 62.0062 136.632 60.3864C136.632 58.7666 137.335 57.4697 138.77 57.4697C140.182 57.4697 140.886 58.7666 140.886 60.3864C140.886 62.0062 140.182 63.2859 138.77 63.2859Z" fill="#2C354D"/>
<path d="M146.697 59.5967C146.697 58.317 147.469 57.5792 148.57 57.5792C149.648 57.5792 150.294 58.2882 150.294 59.4699V64.7847H152.38V59.1471C152.386 57.0258 151.176 55.8153 149.348 55.8153C148.022 55.8153 147.112 56.4494 146.708 57.4351H146.604V55.9306H144.61V64.7847H146.697V59.5967Z" fill="#2C354D"/>
<path d="M167.445 52.6103C167.445 50.7426 168.959 49.2285 170.827 49.2285H270.251C272.118 49.2285 273.632 50.7426 273.632 52.6103V65.461C273.632 67.3287 272.118 68.8428 270.251 68.8428H170.827C168.959 68.8428 167.445 67.3287 167.445 65.461V52.6103Z" fill="#F1F4F9"/>
<path fill-rule="evenodd" clip-rule="evenodd" d="M270.251 49.9049H170.827C169.332 49.9049 168.121 51.1161 168.121 52.6103V65.461C168.121 66.9552 169.332 68.1664 170.827 68.1664H270.251C271.745 68.1664 272.956 66.9552 272.956 65.461V52.6103C272.956 51.1161 271.745 49.9049 270.251 49.9049ZM170.827 49.2285C168.959 49.2285 167.445 50.7426 167.445 52.6103V65.461C167.445 67.3287 168.959 68.8428 170.827 68.8428H270.251C272.118 68.8428 273.632 67.3287 273.632 65.461V52.6103C273.632 50.7426 272.118 49.2285 270.251 49.2285H170.827Z" fill="#CED3DD"/>
<path d="M174.888 62.7556H179.394V61.7098H176.136V59.8302H179.135V58.7844H176.136V56.9148H179.367V55.8691H174.888V62.7556Z" fill="#9FA6B5"/>
<path d="M184.288 57.7622H185.488C185.465 56.5988 184.473 55.7749 183.007 55.7749C181.561 55.7749 180.475 56.5887 180.478 57.8059C180.478 58.7945 181.181 59.3628 182.314 59.6553L183.097 59.8571C183.84 60.0454 184.331 60.2774 184.335 60.812C184.331 61.4005 183.773 61.7939 182.959 61.7939C182.179 61.7939 181.574 61.4442 181.524 60.7212H180.296C180.347 62.0898 181.366 62.8598 182.97 62.8598C184.621 62.8598 185.579 62.036 185.582 60.8221C185.579 59.6284 184.594 59.0837 183.558 58.8382L182.912 58.6768C182.347 58.5423 181.735 58.3036 181.742 57.7286C181.746 57.2107 182.21 56.8308 182.99 56.8308C183.733 56.8308 184.224 57.1771 184.288 57.7622Z" fill="#9FA6B5"/>
<path d="M186.6 62.7556H187.847V59.8302H191.038V62.7556H192.289V55.8691H191.038V58.7844H187.847V55.8691H186.6V62.7556Z" fill="#9FA6B5"/>
<path d="M195.805 62.7556H197.053V60.2337H198.324L199.676 62.7556H201.068L199.578 60.0252C200.388 59.699 200.816 59.0063 200.816 58.0715C200.816 56.7568 199.968 55.8691 198.388 55.8691H195.805V62.7556ZM197.053 59.198V56.9115H198.196C199.128 56.9115 199.544 57.3385 199.544 58.0715C199.544 58.8046 199.128 59.198 198.203 59.198H197.053Z" fill="#9FA6B5"/>
<path d="M204.028 62.8565C205.232 62.8565 206.059 62.268 206.274 61.3702L205.138 61.2424C204.973 61.6796 204.569 61.9082 204.045 61.9082C203.258 61.9082 202.737 61.3904 202.727 60.506H206.325V60.1328C206.325 58.3204 205.235 57.5235 203.964 57.5235C202.484 57.5235 201.519 58.6096 201.519 60.2034C201.519 61.8242 202.471 62.8565 204.028 62.8565ZM202.73 59.6856C202.767 59.0265 203.255 58.4717 203.981 58.4717C204.68 58.4717 205.151 58.9828 205.158 59.6856H202.73Z" fill="#9FA6B5"/>
<path d="M211.342 58.9559C211.174 58.0816 210.474 57.5235 209.264 57.5235C208.02 57.5235 207.172 58.1354 207.176 59.0904C207.172 59.8436 207.636 60.3413 208.628 60.5464L209.509 60.7313C209.983 60.8356 210.205 61.0272 210.205 61.3198C210.205 61.6728 209.822 61.9385 209.244 61.9385C208.685 61.9385 208.322 61.6964 208.218 61.2324L207.031 61.3467C207.182 62.2949 207.979 62.8565 209.247 62.8565C210.538 62.8565 211.449 62.1873 211.453 61.2088C211.449 60.4724 210.975 60.0218 210 59.81L209.119 59.6217C208.595 59.504 208.386 59.3224 208.389 59.0232C208.386 58.6734 208.773 58.4313 209.281 58.4313C209.842 58.4313 210.138 58.7373 210.232 59.077L211.342 58.9559Z" fill="#9FA6B5"/>
<path d="M214.648 62.8565C215.852 62.8565 216.679 62.268 216.894 61.3702L215.758 61.2424C215.593 61.6796 215.19 61.9082 214.665 61.9082C213.878 61.9082 213.357 61.3904 213.347 60.506H216.945V60.1328C216.945 58.3204 215.855 57.5235 214.584 57.5235C213.105 57.5235 212.14 58.6096 212.14 60.2034C212.14 61.8242 213.091 62.8565 214.648 62.8565ZM213.35 59.6856C213.387 59.0265 213.875 58.4717 214.601 58.4717C215.301 58.4717 215.771 58.9828 215.778 59.6856H213.35Z" fill="#9FA6B5"/>
<path d="M219.366 62.8598C220.177 62.8598 220.661 62.4799 220.883 62.0461H220.923V62.7556H222.093V59.2989C222.093 57.9337 220.98 57.5235 219.995 57.5235C218.909 57.5235 218.075 58.0077 217.806 58.9492L218.943 59.1106C219.064 58.7575 219.407 58.4549 220.002 58.4549C220.567 58.4549 220.876 58.7441 220.876 59.2518V59.272C220.876 59.6217 220.51 59.6385 219.598 59.736C218.596 59.8436 217.638 60.1429 217.638 61.3063C217.638 62.3218 218.381 62.8598 219.366 62.8598ZM219.682 61.9654C219.175 61.9654 218.811 61.7334 218.811 61.2862C218.811 60.8188 219.218 60.6237 219.763 60.5464C220.082 60.5027 220.721 60.422 220.879 60.2942V60.9028C220.879 61.4778 220.415 61.9654 219.682 61.9654Z" fill="#9FA6B5"/>
<path d="M223.223 62.7556H224.44V59.7192C224.44 59.0635 224.934 58.5995 225.603 58.5995C225.808 58.5995 226.064 58.6365 226.168 58.6701V57.5504C226.057 57.5302 225.866 57.5167 225.731 57.5167C225.139 57.5167 224.645 57.853 224.457 58.4515H224.403V57.5907H223.223V62.7556Z" fill="#9FA6B5"/>
<path d="M228.922 62.8565C230.22 62.8565 231.048 62.0864 231.135 60.9902H229.972C229.867 61.5451 229.467 61.8645 228.932 61.8645C228.173 61.8645 227.682 61.229 227.682 60.1731C227.682 59.1308 228.183 58.5053 228.932 58.5053C229.518 58.5053 229.877 58.8819 229.972 59.3796H231.135C231.051 58.2599 230.177 57.5235 228.916 57.5235C227.403 57.5235 226.448 58.6163 226.448 60.1933C226.448 61.7569 227.379 62.8565 228.922 62.8565Z" fill="#9FA6B5"/>
<path d="M233.257 59.7293C233.257 58.9828 233.721 58.5524 234.373 58.5524C235.012 58.5524 235.389 58.9593 235.389 59.6553V62.7556H236.606V59.467C236.606 58.2195 235.9 57.5235 234.827 57.5235C234.034 57.5235 233.529 57.8832 233.291 58.4683H233.23V55.8691H232.04V62.7556H233.257V59.7293Z" fill="#9FA6B5"/>
<path d="M240.06 62.7556H244.341V61.7098H241.308V55.8691H240.06V62.7556Z" fill="#9FA6B5"/>
<path d="M245.329 62.7556H249.609V61.7098H246.576V55.8691H245.329V62.7556Z" fill="#9FA6B5"/>
<path d="M256.224 58.1926C256.012 56.6626 254.835 55.7749 253.308 55.7749C251.509 55.7749 250.154 57.0863 250.154 59.3123C250.154 61.535 251.493 62.8497 253.308 62.8497C254.946 62.8497 256.032 61.7905 256.224 60.4758L254.966 60.4691C254.808 61.2761 254.149 61.73 253.325 61.73C252.209 61.73 251.408 60.8927 251.408 59.3123C251.408 57.7588 252.202 56.8947 253.328 56.8947C254.166 56.8947 254.821 57.3688 254.966 58.1926H256.224Z" fill="#9FA6B5"/>
<path d="M264.941 60.5272L266.741 58.5262C266.825 58.4338 266.869 58.3407 266.869 58.2633C266.869 58.1137 266.711 58.0211 266.447 58.0211L262.556 58.0211C262.292 58.0211 262.134 58.1135 262.134 58.2628C262.134 58.3403 262.178 58.432 262.262 58.5246L264.062 60.5265C264.178 60.6552 264.334 60.7265 264.502 60.7265C264.669 60.7266 264.825 60.6561 264.941 60.5272Z" fill="#9FA6B5"/>
<path d="M364.836 61.276L363.365 60.0844C363.402 59.8359 363.42 59.6022 363.42 59.3738C363.42 59.1454 363.402 58.9117 363.365 58.6632L364.836 57.4716C364.945 57.3838 364.972 57.2332 364.902 57.1146L363.562 54.8695C363.491 54.7511 363.343 54.6988 363.21 54.7456L361.41 55.3819C361.025 55.0904 360.597 54.8524 360.135 54.6727L359.804 52.8433C359.779 52.7085 359.658 52.6103 359.517 52.6103H356.837C356.696 52.6103 356.575 52.7085 356.55 52.8434L356.219 54.6727C355.757 54.8524 355.329 55.0905 354.944 55.3819L353.145 54.7456C353.012 54.698 352.863 54.7509 352.792 54.8695L351.453 57.1146C351.382 57.2333 351.409 57.3838 351.518 57.4716L352.99 58.6632C352.952 58.9117 352.934 59.1454 352.934 59.3738C352.934 59.6022 352.952 59.8359 352.99 60.0844L351.518 61.276C351.409 61.3638 351.382 61.5144 351.453 61.633L352.792 63.8781C352.864 63.9968 353.013 64.049 353.145 64.002L354.944 63.3657C355.329 63.6572 355.757 63.8952 356.219 64.0749L356.55 65.9043C356.575 66.0391 356.696 66.1374 356.837 66.1374H359.517C359.658 66.1374 359.779 66.0391 359.804 65.9043L360.135 64.0749C360.597 63.8952 361.025 63.6572 361.41 63.3657L363.21 64.002C363.342 64.048 363.491 63.9968 363.562 63.8781L364.902 61.633C364.972 61.5144 364.945 61.3638 364.836 61.276ZM358.177 62.192C356.571 62.192 355.264 60.9276 355.264 59.3738C355.264 57.82 356.571 56.5557 358.177 56.5557C359.783 56.5557 361.09 57.82 361.09 59.3738C361.09 60.9276 359.783 62.192 358.177 62.192Z" fill="#8D96A9"/>
<path d="M381.849 54.3012C381.849 55.235 381.092 55.9921 380.158 55.9921C379.224 55.9921 378.467 55.235 378.467 54.3012C378.467 53.3673 379.224 52.6103 380.158 52.6103C381.092 52.6103 381.849 53.3673 381.849 54.3012Z" fill="#8D96A9"/>
<path d="M381.849 59.3738C381.849 60.3077 381.092 61.0647 380.158 61.0647C379.224 61.0647 378.467 60.3077 378.467 59.3738C378.467 58.44 379.224 57.6829 380.158 57.6829C381.092 57.6829 381.849 58.44 381.849 59.3738Z" fill="#8D96A9"/>
<path d="M381.849 64.4465C381.849 65.3803 381.092 66.1374 380.158 66.1374C379.224 66.1374 378.467 65.3803 378.467 64.4465C378.467 63.5126 379.224 62.7556 380.158 62.7556C381.092 62.7556 381.849 63.5126 381.849 64.4465Z" fill="#8D96A9"/>
<path d="M20 124.304H395.376V268.367H20V124.304Z" fill="url(#paint0_linear)"/>
<path d="M20 82.3698H395.376V124.304H20V82.3698Z" fill="#F1F2F6"/>
<path fill-rule="evenodd" clip-rule="evenodd" d="M19.3237 81.6935H396.053V124.98H19.3237V81.6935ZM20.0001 82.3699V124.304H395.376V82.3699H20.0001Z" fill="#CED3DD"/>
<path d="M33.5278 92.5152C33.5278 90.6475 35.0419 89.1334 36.9096 89.1334H297.982C299.85 89.1334 301.364 90.6475 301.364 92.5151V114.158C301.364 116.026 299.85 117.54 297.982 117.54H36.9096C35.0419 117.54 33.5278 116.026 33.5278 114.158V92.5152Z" fill="white"/>
<path fill-rule="evenodd" clip-rule="evenodd" d="M297.982 89.8097H36.9096C35.4154 89.8097 34.2042 91.021 34.2042 92.5152V114.158C34.2042 115.653 35.4154 116.864 36.9096 116.864H297.982C299.476 116.864 300.688 115.653 300.688 114.158V92.5151C300.688 91.021 299.476 89.8097 297.982 89.8097ZM36.9096 89.1334C35.0419 89.1334 33.5278 90.6475 33.5278 92.5152V114.158C33.5278 116.026 35.0419 117.54 36.9096 117.54H297.982C299.85 117.54 301.364 116.026 301.364 114.158V92.5151C301.364 90.6475 299.85 89.1334 297.982 89.1334H36.9096Z" fill="#CED3DD"/>
<path d="M46.1661 106.719C48.4142 106.719 49.6824 105.321 49.6824 103.015C49.6824 100.724 48.4142 99.3402 46.267 99.3402H43.8892V106.719H46.1661ZM44.7826 105.926V100.133H46.2093C47.9386 100.133 48.8177 101.228 48.8177 103.015C48.8177 104.816 47.9386 105.926 46.1084 105.926H44.7826Z" fill="#2C354D"/>
<path d="M50.9644 106.719H51.8146V103.217C51.8146 102.467 52.4055 101.92 53.2125 101.92C53.4394 101.92 53.6736 101.963 53.7313 101.977V101.113C53.634 101.106 53.4106 101.098 53.2845 101.098C52.6216 101.098 52.0452 101.473 51.8434 102.021H51.7858V101.185H50.9644V106.719Z" fill="#2C354D"/>
<path d="M56.2661 106.848C57.2316 106.848 57.736 106.329 57.909 105.969H57.9522V106.719H58.8024V103.073C58.8024 101.314 57.4622 101.113 56.7561 101.113C55.9202 101.113 54.9691 101.401 54.5368 102.41L55.3438 102.698C55.5312 102.294 55.9743 101.862 56.7849 101.862C57.5667 101.862 57.9522 102.276 57.9522 102.986V103.015C57.9522 103.426 57.5343 103.39 56.5255 103.519C55.4987 103.653 54.3783 103.88 54.3783 105.148C54.3783 106.229 55.2141 106.848 56.2661 106.848ZM56.3958 106.084C55.7185 106.084 55.2285 105.782 55.2285 105.191C55.2285 104.543 55.8194 104.341 56.4823 104.254C56.8425 104.211 57.8081 104.11 57.9522 103.937V104.715C57.9522 105.407 57.4046 106.084 56.3958 106.084Z" fill="#2C354D"/>
<path d="M61.5066 106.719H62.3424L63.553 102.467H63.6394L64.85 106.719H65.6858L67.3719 101.185H66.4784L65.2823 105.407H65.2246L64.0573 101.185H63.1495L61.9678 105.422H61.9101L60.714 101.185H59.8205L61.5066 106.719Z" fill="#2C354D"/>
<path d="M71.9966 103.39C71.9966 102.424 72.5947 101.877 73.4089 101.877C74.1979 101.877 74.6771 102.392 74.6771 103.26V106.719H75.5273V103.202C75.5273 101.79 74.7743 101.113 73.6539 101.113C72.8181 101.113 72.2993 101.487 72.0399 102.049H71.9678V101.185H71.1464V106.719H71.9966V103.39Z" fill="#2C354D"/>
<path d="M79.2997 106.834C80.4238 106.834 81.2452 106.272 81.5046 105.436L80.6831 105.205C80.467 105.782 79.9662 106.07 79.2997 106.07C78.3017 106.07 77.6136 105.425 77.574 104.24H81.591V103.88C81.591 101.819 80.3661 101.113 79.2132 101.113C77.7145 101.113 76.7201 102.294 76.7201 103.995C76.7201 105.695 77.7001 106.834 79.2997 106.834ZM77.574 103.505C77.6316 102.644 78.2405 101.877 79.2132 101.877C80.1355 101.877 80.7264 102.568 80.7264 103.505H77.574Z" fill="#2C354D"/>
<path d="M84.0367 106.719H84.8726L86.0831 102.467H86.1695L87.3801 106.719H88.2159L89.902 101.185H89.0085L87.8124 105.407H87.7547L86.5875 101.185H85.6796L84.4979 105.422H84.4402L83.2441 101.185H82.3506L84.0367 106.719Z" fill="#2C354D"/>
<path d="M93.6765 106.719H94.5267V101.185H93.6765V106.719ZM94.1088 100.262C94.4403 100.262 94.7141 100.003 94.7141 99.686C94.7141 99.369 94.4403 99.1096 94.1088 99.1096C93.7774 99.1096 93.5036 99.369 93.5036 99.686C93.5036 100.003 93.7774 100.262 94.1088 100.262Z" fill="#2C354D"/>
<path d="M98.2307 106.834C99.4556 106.834 100.263 106.084 100.407 105.105H99.5565C99.398 105.71 98.8936 106.07 98.2307 106.07C97.2219 106.07 96.5734 105.234 96.5734 103.952C96.5734 102.698 97.2363 101.877 98.2307 101.877C98.98 101.877 99.4268 102.338 99.5565 102.842H100.407C100.263 101.804 99.3835 101.113 98.2163 101.113C96.7175 101.113 95.7232 102.294 95.7232 103.98C95.7232 105.638 96.6743 106.834 98.2307 106.834Z" fill="#2C354D"/>
<path d="M103.796 106.834C105.295 106.834 106.304 105.695 106.304 103.98C106.304 102.251 105.295 101.113 103.796 101.113C102.298 101.113 101.289 102.251 101.289 103.98C101.289 105.695 102.298 106.834 103.796 106.834ZM103.796 106.07C102.658 106.07 102.139 105.09 102.139 103.98C102.139 102.871 102.658 101.877 103.796 101.877C104.935 101.877 105.454 102.871 105.454 103.98C105.454 105.09 104.935 106.07 103.796 106.07Z" fill="#2C354D"/>
<path d="M108.351 103.39C108.351 102.424 108.949 101.877 109.763 101.877C110.552 101.877 111.031 102.392 111.031 103.26V106.719H111.881V103.202C111.881 101.79 111.128 101.113 110.008 101.113C109.172 101.113 108.653 101.487 108.394 102.049H108.322V101.185H107.5V106.719H108.351V103.39Z" fill="#2C354D"/>
<path d="M117.253 102.424C116.987 101.639 116.389 101.113 115.293 101.113C114.126 101.113 113.261 101.776 113.261 102.712C113.261 103.476 113.715 103.988 114.731 104.225L115.654 104.442C116.212 104.571 116.475 104.838 116.475 105.22C116.475 105.695 115.971 106.084 115.178 106.084C114.483 106.084 114.047 105.785 113.895 105.191L113.088 105.393C113.287 106.333 114.061 106.834 115.192 106.834C116.479 106.834 117.354 106.131 117.354 105.177C117.354 104.406 116.871 103.919 115.884 103.678L115.063 103.476C114.407 103.314 114.112 103.094 114.112 102.669C114.112 102.194 114.616 101.848 115.293 101.848C116.035 101.848 116.342 102.258 116.489 102.64L117.253 102.424Z" fill="#2C354D"/>
<path d="M314.89 92.5151C314.89 90.6474 316.404 89.1334 318.272 89.1334H378.467C380.335 89.1334 381.849 90.6474 381.849 92.5151V114.158C381.849 116.026 380.335 117.54 378.467 117.54H318.272C316.404 117.54 314.89 116.026 314.89 114.158V92.5151Z" fill="#D07455"/>
<path fill-rule="evenodd" clip-rule="evenodd" d="M378.467 89.8097H318.272C316.778 89.8097 315.566 91.021 315.566 92.5151V114.158C315.566 115.653 316.778 116.864 318.272 116.864H378.467C379.962 116.864 381.173 115.653 381.173 114.158V92.5151C381.173 91.021 379.962 89.8097 378.467 89.8097ZM318.272 89.1334C316.404 89.1334 314.89 90.6474 314.89 92.5151V114.158C314.89 116.026 316.404 117.54 318.272 117.54H378.467C380.335 117.54 381.849 116.026 381.849 114.158V92.5151C381.849 90.6474 380.335 89.1334 378.467 89.1334H318.272Z" fill="#994A2F"/>
<path d="M345.912 102.139H347.407C347.386 100.824 346.305 99.9156 344.662 99.9156C343.045 99.9156 341.859 100.809 341.866 102.149C341.863 103.237 342.63 103.861 343.877 104.16L344.68 104.361C345.484 104.556 345.93 104.787 345.934 105.284C345.93 105.824 345.419 106.192 344.626 106.192C343.816 106.192 343.232 105.817 343.181 105.078H341.672C341.712 106.674 342.854 107.499 344.644 107.499C346.446 107.499 347.505 106.638 347.508 105.287C347.505 104.059 346.579 103.407 345.296 103.118L344.633 102.96C343.992 102.812 343.455 102.574 343.466 102.045C343.466 101.569 343.888 101.22 344.651 101.22C345.397 101.22 345.855 101.558 345.912 102.139Z" fill="white"/>
<path d="M348.074 101.303H350.333V107.395H351.875V101.303H354.133V100.017H348.074V101.303Z" fill="white"/>
<path d="M361.382 103.706C361.382 101.292 359.883 99.9156 357.927 99.9156C355.96 99.9156 354.472 101.292 354.472 103.706C354.472 106.109 355.96 107.496 357.927 107.496C359.883 107.496 361.382 106.12 361.382 103.706ZM359.8 103.706C359.8 105.269 359.058 106.116 357.927 106.116C356.792 106.116 356.053 105.269 356.053 103.706C356.053 102.142 356.792 101.295 357.927 101.295C359.058 101.295 359.8 102.142 359.8 103.706Z" fill="white"/>
<path d="M362.335 107.395H363.895V105.003H365.206C366.903 105.003 367.89 103.99 367.89 102.517C367.89 101.051 366.921 100.017 365.246 100.017H362.335V107.395ZM363.895 103.753V101.292H364.947C365.847 101.292 366.283 101.782 366.283 102.517C366.283 103.248 365.847 103.753 364.954 103.753H363.895Z" fill="white"/>
<path d="M329.094 99.955C329.094 99.5815 329.397 99.2787 329.77 99.2787H330.446C330.82 99.2787 331.123 99.5815 331.123 99.955V106.719C331.123 107.092 330.82 107.395 330.446 107.395H329.77C329.397 107.395 329.094 107.092 329.094 106.719V99.955Z" fill="white"/>
<path d="M333.152 99.955C333.152 99.5815 333.455 99.2787 333.828 99.2787H334.505C334.878 99.2787 335.181 99.5815 335.181 99.955V106.719C335.181 107.092 334.878 107.395 334.505 107.395H333.828C333.455 107.395 333.152 107.092 333.152 106.719V99.955Z" fill="white"/>
<path d="M66.5435 144.006H68.976V150.682H70.3902V144.006H72.8228V142.811H66.5435V144.006Z" fill="#9FA6B5"/>
<path d="M80.6411 146.746C80.6411 144.202 79.0886 142.704 77.0249 142.704C74.9574 142.704 73.4087 144.202 73.4087 146.746C73.4087 149.287 74.9574 150.789 77.0249 150.789C79.0886 150.789 80.6411 149.29 80.6411 146.746ZM79.2077 146.746C79.2077 148.537 78.3084 149.509 77.0249 149.509C75.7452 149.509 74.8421 148.537 74.8421 146.746C74.8421 144.956 75.7452 143.983 77.0249 143.983C78.3084 143.983 79.2077 144.956 79.2077 146.746Z" fill="#9FA6B5"/>
<path d="M84.5694 150.682C86.9674 150.682 88.3893 149.198 88.3893 146.739C88.3893 144.287 86.9674 142.811 84.6232 142.811H81.9024V150.682H84.5694ZM83.3282 149.448V144.045H84.5425C86.1412 144.045 86.9751 144.936 86.9751 146.739C86.9751 148.549 86.1412 149.448 84.5002 149.448H83.3282Z" fill="#9FA6B5"/>
<path d="M90.2981 150.682L90.9476 148.741H93.9066L94.5599 150.682H96.0817L93.3071 142.811H91.5471L88.7763 150.682H90.2981ZM91.3319 147.596L92.3964 144.425H92.4579L93.5223 147.596H91.3319Z" fill="#9FA6B5"/>
<path d="M95.6906 142.811L98.5536 147.746V150.682H99.9755V147.746L102.838 142.811H101.228L99.3029 146.293H99.2261L97.3008 142.811H95.6906Z" fill="#9FA6B5"/>
<path d="M49.4532 206.613C56.0102 206.613 60.8186 201.771 60.8186 195.181C60.8186 188.506 56.1783 183.613 49.8567 183.613C47.5365 183.613 45.2836 184.437 43.8713 185.564H43.6696L44.8801 175.409H59.2718V171.71H41.383L39.2983 188.657L43.1988 189.128C44.6279 188.102 47.0658 187.363 49.1842 187.38C53.5723 187.413 56.7835 190.742 56.7835 195.248C56.7835 199.67 53.69 202.915 49.4532 202.915C45.9225 202.915 43.1148 200.645 42.7953 197.534H38.7603C39.0124 202.78 43.5351 206.613 49.4532 206.613Z" fill="#2C354D"/>
<path d="M69.9831 201.738C71.6475 201.738 73.0094 200.376 73.0094 198.711C73.0094 197.047 71.6475 195.685 69.9831 195.685C68.3186 195.685 66.9568 197.047 66.9568 198.711C66.9568 200.376 68.3186 201.738 69.9831 201.738ZM69.9831 184.32C71.6475 184.32 73.0094 182.958 73.0094 181.293C73.0094 179.629 71.6475 178.267 69.9831 178.267C68.3186 178.267 66.9568 179.629 66.9568 181.293C66.9568 182.958 68.3186 184.32 69.9831 184.32Z" fill="#2C354D"/>
<path d="M78.7819 199.081H94.9894V206.143H98.9572V199.081H103.665V195.382H98.9572V171.71H93.9134L78.7819 195.651V199.081ZM94.9894 195.382H83.2877V195.113L94.7204 177.023H94.9894V195.382Z" fill="#2C354D"/>
<path d="M120.252 206.613C126.809 206.613 131.618 201.771 131.618 195.181C131.618 188.506 126.977 183.613 120.656 183.613C118.335 183.613 116.083 184.437 114.67 185.564H114.468L115.679 175.409H130.071V171.71H112.182L110.097 188.657L113.998 189.128C115.427 188.102 117.865 187.363 119.983 187.38C124.371 187.413 127.582 190.742 127.582 195.248C127.582 199.67 124.489 202.915 120.252 202.915C116.721 202.915 113.914 200.645 113.594 197.534H109.559C109.811 202.78 114.334 206.613 120.252 206.613Z" fill="#2C354D"/>
<path d="M33.5273 230.491C33.5273 228.624 35.0414 227.11 36.9091 227.11H132.951C134.819 227.11 136.333 228.624 136.333 230.491V243.342C136.333 245.21 134.819 246.724 132.951 246.724H36.9091C35.0414 246.724 33.5273 245.21 33.5273 243.342V230.491Z" fill="white"/>
<path fill-rule="evenodd" clip-rule="evenodd" d="M132.951 227.786H36.9091C35.415 227.786 34.2037 228.997 34.2037 230.491V243.342C34.2037 244.836 35.415 246.047 36.9091 246.047H132.951C134.445 246.047 135.657 244.836 135.657 243.342V230.491C135.657 228.997 134.445 227.786 132.951 227.786ZM36.9091 227.11C35.0414 227.11 33.5273 228.624 33.5273 230.491V243.342C33.5273 245.21 35.0414 246.724 36.9091 246.724H132.951C134.819 246.724 136.333 245.21 136.333 243.342V230.491C136.333 228.624 134.819 227.11 132.951 227.11H36.9091Z" fill="#A8ADBB"/>
<path d="M64.5816 235.472H63.5022L62.1976 239.446H62.1438L60.8357 235.472H59.7563L61.6327 240.637H62.7087L64.5816 235.472Z" fill="#2C354D"/>
<path d="M65.5265 240.637H66.5319V235.472H65.5265V240.637ZM66.0342 234.675C66.3806 234.675 66.6698 234.406 66.6698 234.076C66.6698 233.747 66.3806 233.474 66.0342 233.474C65.6845 233.474 65.3987 233.747 65.3987 234.076C65.3987 234.406 65.6845 234.675 66.0342 234.675Z" fill="#2C354D"/>
<path d="M70.1105 240.741C71.2369 240.741 72.0339 240.186 72.2625 239.345L71.3109 239.174C71.1293 239.661 70.6922 239.91 70.1206 239.91C69.2598 239.91 68.6814 239.352 68.6545 238.357H72.3264V238C72.3264 236.134 71.21 235.404 70.0399 235.404C68.6007 235.404 67.6525 236.501 67.6525 238.088C67.6525 239.692 68.5873 240.741 70.1105 240.741ZM68.6579 237.604C68.6982 236.871 69.2295 236.235 70.0466 236.235C70.8267 236.235 71.3378 236.813 71.3412 237.604H68.6579Z" fill="#2C354D"/>
<path d="M74.5524 240.637H75.5746L76.6238 236.908H76.7011L77.7502 240.637H78.7758L80.2923 235.472H79.2533L78.2479 239.248H78.1974L77.1887 235.472H76.1496L75.1341 239.265H75.0837L74.0716 235.472H73.0326L74.5524 240.637Z" fill="#2C354D"/>
<path d="M85.9279 240.741C87.3839 240.741 88.3355 239.675 88.3355 238.078C88.3355 236.47 87.3839 235.404 85.9279 235.404C84.472 235.404 83.5204 236.47 83.5204 238.078C83.5204 239.675 84.472 240.741 85.9279 240.741ZM85.9313 239.897C84.9797 239.897 84.5358 239.066 84.5358 238.074C84.5358 237.086 84.9797 236.245 85.9313 236.245C86.8762 236.245 87.32 237.086 87.32 238.074C87.32 239.066 86.8762 239.897 85.9313 239.897Z" fill="#2C354D"/>
<path d="M90.4632 237.57C90.4632 236.746 90.9676 236.275 91.667 236.275C92.3496 236.275 92.7632 236.723 92.7632 237.472V240.637H93.7686V237.351C93.7686 236.074 93.0658 235.404 92.01 235.404C91.2332 235.404 90.7255 235.764 90.4867 236.312H90.4228V235.472H89.4578V240.637H90.4632V237.57Z" fill="#2C354D"/>
<path d="M96.1224 233.75H95.117V240.637H96.1224V233.75Z" fill="#2C354D"/>
<path d="M97.475 240.637H98.4804V235.472H97.475V240.637ZM97.9827 234.675C98.329 234.675 98.6182 234.406 98.6182 234.076C98.6182 233.747 98.329 233.474 97.9827 233.474C97.633 233.474 97.3472 233.747 97.3472 234.076C97.3472 234.406 97.633 234.675 97.9827 234.675Z" fill="#2C354D"/>
<path d="M100.838 237.57C100.838 236.746 101.343 236.275 102.042 236.275C102.725 236.275 103.138 236.723 103.138 237.472V240.637H104.144V237.351C104.144 236.074 103.441 235.404 102.385 235.404C101.608 235.404 101.101 235.764 100.862 236.312H100.798V235.472H99.8329V240.637H100.838V237.57Z" fill="#2C354D"/>
<path d="M107.718 240.741C108.845 240.741 109.642 240.186 109.87 239.345L108.919 239.174C108.737 239.661 108.3 239.91 107.728 239.91C106.867 239.91 106.289 239.352 106.262 238.357H109.934V238C109.934 236.134 108.818 235.404 107.648 235.404C106.208 235.404 105.26 236.501 105.26 238.088C105.26 239.692 106.195 240.741 107.718 240.741ZM106.266 237.604C106.306 236.871 106.837 236.235 107.654 236.235C108.434 236.235 108.945 236.813 108.949 237.604H106.266Z" fill="#2C354D"/>
<path d="M149.86 124.304H150.537V268.367H149.86V124.304Z" fill="#CED3DD"/>
<path d="M166.769 151.358C166.769 149.49 168.283 147.976 170.15 147.976H378.467C380.335 147.976 381.849 149.49 381.849 151.358V169.619C381.849 171.487 380.335 173.001 378.467 173.001H170.15C168.283 173.001 166.769 171.487 166.769 169.619V151.358Z" fill="#7ACB59" fill-opacity="0.1"/>
<path fill-rule="evenodd" clip-rule="evenodd" d="M378.467 148.653H170.15C168.656 148.653 167.445 149.864 167.445 151.358V169.619C167.445 171.114 168.656 172.325 170.15 172.325H378.467C379.961 172.325 381.173 171.114 381.173 169.619V151.358C381.173 149.864 379.961 148.653 378.467 148.653ZM170.15 147.976C168.283 147.976 166.769 149.49 166.769 151.358V169.619C166.769 171.487 168.283 173.001 170.15 173.001H378.467C380.335 173.001 381.849 171.487 381.849 169.619V151.358C381.849 149.49 380.335 147.976 378.467 147.976H170.15Z" fill="#7ACB59"/>
<path d="M162.461 160.049L159.96 158.249C159.844 158.165 159.728 158.121 159.631 158.121C159.444 158.121 159.329 158.279 159.329 158.543V162.435C159.329 162.698 159.444 162.856 159.631 162.856C159.728 162.856 159.842 162.812 159.958 162.728L162.46 160.928C162.621 160.812 162.71 160.656 162.71 160.488C162.71 160.321 162.622 160.165 162.461 160.049Z" fill="#9FA6B5"/>
<path d="M178.328 164.209C180.726 164.209 182.148 162.725 182.148 160.266C182.148 157.814 180.726 156.338 178.382 156.338H175.661V164.209H178.328ZM177.087 162.975V157.572H178.301C179.9 157.572 180.734 158.463 180.734 160.266C180.734 162.076 179.9 162.975 178.259 162.975H177.087Z" fill="#2C354D"/>
<path d="M183.333 164.209H184.724V160.738C184.724 159.989 185.289 159.459 186.054 159.459C186.288 159.459 186.58 159.501 186.699 159.54V158.26C186.572 158.237 186.353 158.221 186.2 158.221C185.523 158.221 184.958 158.606 184.743 159.29H184.682V158.306H183.333V164.209Z" fill="#2C354D"/>
<path d="M189.098 164.328C190.024 164.328 190.577 163.894 190.831 163.398H190.877V164.209H192.214V160.258C192.214 158.698 190.942 158.229 189.816 158.229C188.575 158.229 187.622 158.782 187.315 159.858L188.613 160.043C188.752 159.639 189.144 159.294 189.824 159.294C190.47 159.294 190.823 159.624 190.823 160.204V160.227C190.823 160.627 190.404 160.646 189.363 160.758C188.218 160.881 187.122 161.223 187.122 162.552C187.122 163.713 187.972 164.328 189.098 164.328ZM189.459 163.306C188.879 163.306 188.464 163.04 188.464 162.529C188.464 161.995 188.929 161.772 189.551 161.684C189.916 161.634 190.646 161.542 190.827 161.396V162.091C190.827 162.748 190.297 163.306 189.459 163.306Z" fill="#2C354D"/>
<path d="M194.723 164.209H196.176L197.282 160.22H197.363L198.47 164.209H199.919L201.59 158.306H200.168L199.146 162.433H199.089L198.028 158.306H196.625L195.565 162.456H195.511L194.473 158.306H193.055L194.723 164.209Z" fill="#2C354D"/>
<path d="M206.421 160.75C206.421 159.897 206.936 159.405 207.67 159.405C208.388 159.405 208.819 159.878 208.819 160.665V164.209H210.21V160.45C210.214 159.036 209.407 158.229 208.188 158.229C207.304 158.229 206.697 158.652 206.428 159.309H206.359V158.306H205.029V164.209H206.421V160.75Z" fill="#2C354D"/>
<path d="M214.129 164.324C215.505 164.324 216.45 163.651 216.696 162.625L215.397 162.479C215.209 162.979 214.748 163.24 214.148 163.24C213.249 163.24 212.653 162.648 212.642 161.638H216.754V161.211C216.754 159.14 215.509 158.229 214.056 158.229C212.365 158.229 211.262 159.47 211.262 161.292C211.262 163.144 212.35 164.324 214.129 164.324ZM212.646 160.7C212.688 159.947 213.245 159.313 214.075 159.313C214.874 159.313 215.412 159.897 215.42 160.7H212.646Z" fill="#2C354D"/>
<path d="M219.009 164.209H220.461L221.568 160.22H221.649L222.756 164.209H224.204L225.876 158.306H224.454L223.432 162.433H223.374L222.314 158.306H220.911L219.85 162.456H219.797L218.759 158.306H217.341L219.009 164.209Z" fill="#2C354D"/>
<path d="M229.315 164.209H230.706V158.306H229.315V164.209ZM230.015 157.468C230.457 157.468 230.818 157.13 230.818 156.715C230.818 156.296 230.457 155.958 230.015 155.958C229.569 155.958 229.208 156.296 229.208 156.715C229.208 157.13 229.569 157.468 230.015 157.468Z" fill="#2C354D"/>
<path d="M234.603 164.324C236.087 164.324 237.032 163.444 237.132 162.191H235.802C235.683 162.825 235.226 163.19 234.615 163.19C233.746 163.19 233.185 162.464 233.185 161.257C233.185 160.066 233.758 159.351 234.615 159.351C235.284 159.351 235.695 159.782 235.802 160.35H237.132C237.036 159.071 236.037 158.229 234.596 158.229C232.866 158.229 231.775 159.478 231.775 161.28C231.775 163.067 232.84 164.324 234.603 164.324Z" fill="#2C354D"/>
<path d="M240.741 164.324C242.47 164.324 243.569 163.106 243.569 161.28C243.569 159.451 242.47 158.229 240.741 158.229C239.012 158.229 237.913 159.451 237.913 161.28C237.913 163.106 239.012 164.324 240.741 164.324ZM240.749 163.209C239.792 163.209 239.323 162.356 239.323 161.277C239.323 160.197 239.792 159.332 240.749 159.332C241.69 159.332 242.159 160.197 242.159 161.277C242.159 162.356 241.69 163.209 240.749 163.209Z" fill="#2C354D"/>
<path d="M246.033 160.75C246.033 159.897 246.548 159.405 247.282 159.405C248.001 159.405 248.431 159.878 248.431 160.665V164.209H249.822V160.45C249.826 159.036 249.019 158.229 247.801 158.229C246.917 158.229 246.31 158.652 246.041 159.309H245.971V158.306H244.642V164.209H246.033V160.75Z" fill="#2C354D"/>
<path d="M255.793 159.866C255.601 158.867 254.802 158.229 253.418 158.229C251.997 158.229 251.028 158.928 251.032 160.02C251.028 160.881 251.558 161.449 252.692 161.684L253.699 161.895C254.241 162.014 254.494 162.233 254.494 162.568C254.494 162.971 254.056 163.275 253.395 163.275C252.757 163.275 252.342 162.998 252.223 162.468L250.867 162.598C251.04 163.682 251.95 164.324 253.399 164.324C254.875 164.324 255.916 163.559 255.92 162.441C255.916 161.599 255.374 161.084 254.26 160.842L253.253 160.627C252.654 160.493 252.415 160.285 252.419 159.943C252.415 159.543 252.857 159.267 253.438 159.267C254.079 159.267 254.418 159.616 254.525 160.004L255.793 159.866Z" fill="#2C354D"/>
<path d="M340.319 164.316C342.056 164.316 343.055 162.844 343.055 160.273C343.055 157.722 342.04 156.231 340.319 156.231C338.597 156.231 337.583 157.722 337.583 160.273C337.583 162.844 338.582 164.316 340.319 164.316ZM340.319 163.471C339.173 163.471 338.505 162.322 338.505 160.273C338.505 158.229 339.181 157.061 340.319 157.061C341.456 157.061 342.133 158.229 342.133 160.273C342.133 162.322 341.464 163.471 340.319 163.471Z" fill="#7C859C"/>
<path d="M345.329 160.658C345.329 159.628 345.986 159.044 346.882 159.044C347.735 159.044 348.25 159.582 348.25 160.519V164.209H349.157V160.458C349.157 158.94 348.35 158.229 347.143 158.229C346.213 158.229 345.683 158.617 345.406 159.228H345.329V156.338H344.422V164.209H345.329V160.658Z" fill="#7C859C"/>
<path d="M351.369 164.27C351.749 164.27 352.06 163.959 352.06 163.578C352.06 163.198 351.749 162.887 351.369 162.887C350.988 162.887 350.677 163.198 350.677 163.578C350.677 163.959 350.988 164.27 351.369 164.27ZM351.369 159.889C351.749 159.889 352.06 159.578 352.06 159.197C352.06 158.817 351.749 158.506 351.369 158.506C350.988 158.506 350.677 158.817 350.677 159.197C350.677 159.578 350.988 159.889 351.369 159.889Z" fill="#7C859C"/>
<path d="M356.331 156.338H355.378L353.411 157.645V158.613L355.332 157.337H355.378V164.209H356.331V156.338Z" fill="#7C859C"/>
<path d="M361.054 164.316C362.791 164.316 363.79 162.844 363.79 160.273C363.79 157.722 362.775 156.231 361.054 156.231C359.332 156.231 358.317 157.722 358.317 160.273C358.317 162.844 359.317 164.316 361.054 164.316ZM361.054 163.471C359.908 163.471 359.24 162.322 359.24 160.273C359.24 158.229 359.916 157.061 361.054 157.061C362.191 157.061 362.867 158.229 362.867 160.273C362.867 162.322 362.199 163.471 361.054 163.471Z" fill="#7C859C"/>
<path d="M365.157 164.209H366.064V160.519C366.064 159.655 366.694 159.044 367.401 159.044C368.089 159.044 368.57 159.493 368.57 160.166V164.209H369.492V160.366C369.492 159.605 369.969 159.044 370.799 159.044C371.444 159.044 371.998 159.386 371.998 160.258V164.209H372.905V160.258C372.905 158.871 372.159 158.229 371.106 158.229C370.261 158.229 369.642 158.617 369.338 159.228H369.277C368.985 158.598 368.47 158.229 367.694 158.229C366.925 158.229 366.356 158.598 366.11 159.228H366.033V158.306H365.157V164.209Z" fill="#7C859C"/>
<path d="M166.768 198.026H381.849V198.703H166.768V198.026Z" fill="#CED3DD"/>
<path d="M171.937 189.91L172.586 187.969H175.545L176.199 189.91H177.72L174.946 182.04H173.186L170.415 189.91H171.937ZM172.971 186.824L174.035 183.654H174.097L175.161 186.824H172.971Z" fill="#2C354D"/>
<path d="M178.587 189.91H179.978V186.321C179.978 185.594 180.463 185.103 181.062 185.103C181.65 185.103 182.054 185.498 182.054 186.106V189.91H183.418V186.229C183.418 185.564 183.814 185.103 184.486 185.103C185.047 185.103 185.493 185.433 185.493 186.163V189.91H186.888V185.948C186.888 184.63 186.127 183.93 185.043 183.93C184.186 183.93 183.533 184.353 183.272 185.01H183.21C182.984 184.342 182.411 183.93 181.616 183.93C180.824 183.93 180.232 184.338 179.986 185.01H179.917V184.007H178.587V189.91Z" fill="#2C354D"/>
<path d="M189.89 190.029C190.816 190.029 191.369 189.595 191.623 189.099H191.669V189.91H193.006V185.96C193.006 184.399 191.734 183.93 190.608 183.93C189.367 183.93 188.414 184.484 188.107 185.56L189.406 185.744C189.544 185.341 189.936 184.995 190.616 184.995C191.262 184.995 191.615 185.325 191.615 185.906V185.929C191.615 186.328 191.196 186.348 190.155 186.459C189.01 186.582 187.914 186.924 187.914 188.254C187.914 189.414 188.764 190.029 189.89 190.029ZM190.251 189.007C189.671 189.007 189.256 188.742 189.256 188.231C189.256 187.697 189.721 187.474 190.343 187.385C190.708 187.335 191.438 187.243 191.619 187.097V187.793C191.619 188.45 191.089 189.007 190.251 189.007Z" fill="#2C354D"/>
<path d="M194.22 189.91H199.066V188.757H196.069V188.707L198.966 184.957V184.007H194.32V185.16H197.264V185.21L194.22 189.026V189.91Z" fill="#2C354D"/>
<path d="M202.671 190.025C204.4 190.025 205.499 188.807 205.499 186.982C205.499 185.153 204.4 183.93 202.671 183.93C200.942 183.93 199.843 185.153 199.843 186.982C199.843 188.807 200.942 190.025 202.671 190.025ZM202.679 188.911C201.722 188.911 201.253 188.058 201.253 186.978C201.253 185.898 201.722 185.033 202.679 185.033C203.62 185.033 204.089 185.898 204.089 186.978C204.089 188.058 203.62 188.911 202.679 188.911Z" fill="#2C354D"/>
<path d="M207.963 186.451C207.963 185.598 208.478 185.106 209.212 185.106C209.931 185.106 210.361 185.579 210.361 186.367V189.91H211.752V186.152C211.756 184.738 210.949 183.93 209.731 183.93C208.847 183.93 208.24 184.353 207.971 185.01H207.902V184.007H206.572V189.91H207.963V186.451Z" fill="#2C354D"/>
<path d="M219.973 184.203H221.345C221.318 182.874 220.184 181.932 218.509 181.932C216.856 181.932 215.615 182.862 215.619 184.253C215.619 185.383 216.422 186.033 217.717 186.367L218.612 186.597C219.462 186.813 220.023 187.078 220.027 187.689C220.023 188.361 219.385 188.811 218.455 188.811C217.563 188.811 216.872 188.411 216.814 187.585H215.411C215.469 189.149 216.633 190.029 218.466 190.029C220.353 190.029 221.449 189.088 221.452 187.7C221.449 186.336 220.323 185.714 219.139 185.433L218.401 185.249C217.755 185.095 217.056 184.822 217.064 184.165C217.068 183.573 217.598 183.139 218.489 183.139C219.339 183.139 219.9 183.535 219.973 184.203Z" fill="#2C354D"/>
<path d="M225.363 190.018C227.046 190.018 228.272 189.053 228.268 187.723C228.272 186.74 227.657 186.033 226.554 185.875V185.814C227.407 185.629 227.98 184.995 227.976 184.111C227.98 182.912 226.958 181.932 225.386 181.932C223.856 181.932 222.673 182.843 222.642 184.161H224.014C224.037 183.5 224.652 183.089 225.378 183.089C226.112 183.089 226.6 183.535 226.596 184.196C226.6 184.884 226.032 185.341 225.217 185.341H224.521V186.44H225.217C226.212 186.44 226.804 186.94 226.8 187.65C226.804 188.346 226.201 188.823 225.359 188.823C224.567 188.823 223.956 188.411 223.922 187.77H222.477C222.515 189.099 223.703 190.018 225.363 190.018Z" fill="#2C354D"/>
<path d="M232.07 189.91H233.462V184.007H232.07V189.91ZM232.77 183.17C233.212 183.17 233.573 182.831 233.573 182.416C233.573 181.998 233.212 181.659 232.77 181.659C232.324 181.659 231.963 181.998 231.963 182.416C231.963 182.831 232.324 183.17 232.77 183.17Z" fill="#2C354D"/>
<path d="M236.175 186.451C236.175 185.598 236.69 185.106 237.424 185.106C238.143 185.106 238.573 185.579 238.573 186.367V189.91H239.964V186.152C239.968 184.738 239.161 183.93 237.943 183.93C237.059 183.93 236.452 184.353 236.183 185.01H236.114V184.007H234.784V189.91H236.175V186.451Z" fill="#2C354D"/>
<path d="M244.218 184.007H243.053V182.593H241.662V184.007H240.824V185.083H241.662V188.365C241.654 189.476 242.461 190.022 243.507 189.991C243.903 189.979 244.175 189.902 244.325 189.852L244.091 188.765C244.014 188.784 243.856 188.819 243.683 188.819C243.334 188.819 243.053 188.696 243.053 188.135V185.083H244.218V184.007Z" fill="#2C354D"/>
<path d="M247.823 190.025C249.198 190.025 250.144 189.353 250.39 188.327L249.091 188.181C248.903 188.68 248.441 188.942 247.842 188.942C246.943 188.942 246.347 188.35 246.335 187.339H250.447V186.913C250.447 184.841 249.202 183.93 247.75 183.93C246.059 183.93 244.956 185.172 244.956 186.993C244.956 188.846 246.043 190.025 247.823 190.025ZM246.339 186.401C246.382 185.648 246.939 185.014 247.769 185.014C248.568 185.014 249.106 185.598 249.114 186.401H246.339Z" fill="#2C354D"/>
<path d="M254.083 192.224C255.678 192.224 256.854 191.493 256.854 190.006V184.007H255.482V184.983H255.405C255.194 184.557 254.752 183.93 253.71 183.93C252.346 183.93 251.274 184.999 251.274 186.94C251.274 188.865 252.346 189.826 253.707 189.826C254.717 189.826 255.19 189.284 255.405 188.849H255.474V189.968C255.474 190.813 254.898 191.171 254.106 191.171C253.268 191.171 252.899 190.775 252.73 190.452L251.478 190.756C251.731 191.559 252.581 192.224 254.083 192.224ZM254.095 188.734C253.176 188.734 252.692 188.019 252.692 186.932C252.692 185.86 253.168 185.072 254.095 185.072C254.99 185.072 255.482 185.814 255.482 186.932C255.482 188.058 254.982 188.734 254.095 188.734Z" fill="#2C354D"/>
<path d="M258.171 189.91H259.562V186.44C259.562 185.691 260.127 185.16 260.892 185.16C261.127 185.16 261.419 185.203 261.538 185.241V183.961C261.411 183.938 261.192 183.923 261.038 183.923C260.362 183.923 259.797 184.307 259.582 184.991H259.52V184.007H258.171V189.91Z" fill="#2C354D"/>
<path d="M263.936 190.029C264.862 190.029 265.416 189.595 265.669 189.099H265.715V189.91H267.053V185.96C267.053 184.399 265.781 183.93 264.655 183.93C263.413 183.93 262.46 184.484 262.153 185.56L263.452 185.744C263.59 185.341 263.982 184.995 264.662 184.995C265.308 184.995 265.662 185.325 265.662 185.906V185.929C265.662 186.328 265.243 186.348 264.201 186.459C263.056 186.582 261.961 186.924 261.961 188.254C261.961 189.414 262.81 190.029 263.936 190.029ZM264.297 189.007C263.717 189.007 263.302 188.742 263.302 188.231C263.302 187.697 263.767 187.474 264.39 187.385C264.755 187.335 265.485 187.243 265.665 187.097V187.793C265.665 188.45 265.135 189.007 264.297 189.007Z" fill="#2C354D"/>
<path d="M271.291 184.007H270.126V182.593H268.735V184.007H267.898V185.083H268.735V188.365C268.728 189.476 269.535 190.022 270.58 189.991C270.976 189.979 271.249 189.902 271.398 189.852L271.164 188.765C271.087 188.784 270.93 188.819 270.757 188.819C270.407 188.819 270.126 188.696 270.126 188.135V185.083H271.291V184.007Z" fill="#2C354D"/>
<path d="M272.346 189.91H273.737V184.007H272.346V189.91ZM273.045 183.17C273.487 183.17 273.849 182.831 273.849 182.416C273.849 181.998 273.487 181.659 273.045 181.659C272.6 181.659 272.238 181.998 272.238 182.416C272.238 182.831 272.6 183.17 273.045 183.17Z" fill="#2C354D"/>
<path d="M277.634 190.025C279.364 190.025 280.463 188.807 280.463 186.982C280.463 185.153 279.364 183.93 277.634 183.93C275.905 183.93 274.806 185.153 274.806 186.982C274.806 188.807 275.905 190.025 277.634 190.025ZM277.642 188.911C276.685 188.911 276.216 188.058 276.216 186.978C276.216 185.898 276.685 185.033 277.642 185.033C278.583 185.033 279.052 185.898 279.052 186.978C279.052 188.058 278.583 188.911 277.642 188.911Z" fill="#2C354D"/>
<path d="M282.926 186.451C282.926 185.598 283.441 185.106 284.175 185.106C284.894 185.106 285.324 185.579 285.324 186.367V189.91H286.715V186.152C286.719 184.738 285.912 183.93 284.694 183.93C283.81 183.93 283.203 184.353 282.934 185.01H282.865V184.007H281.535V189.91H282.926V186.451Z" fill="#2C354D"/>
<path d="M343.531 190.018C345.268 190.018 346.267 188.546 346.267 185.975C346.267 183.423 345.252 181.932 343.531 181.932C341.809 181.932 340.794 183.423 340.794 185.975C340.794 188.546 341.794 190.018 343.531 190.018ZM343.531 189.172C342.385 189.172 341.717 188.023 341.717 185.975C341.717 183.93 342.393 182.762 343.531 182.762C344.668 182.762 345.344 183.93 345.344 185.975C345.344 188.023 344.676 189.172 343.531 189.172Z" fill="#7C859C"/>
<path d="M348.541 186.359C348.541 185.329 349.198 184.745 350.094 184.745C350.947 184.745 351.462 185.283 351.462 186.221V189.91H352.369V186.159C352.369 184.641 351.562 183.93 350.355 183.93C349.425 183.93 348.895 184.319 348.618 184.93H348.541V182.04H347.634V189.91H348.541V186.359Z" fill="#7C859C"/>
<path d="M354.581 189.972C354.961 189.972 355.272 189.66 355.272 189.28C355.272 188.899 354.961 188.588 354.581 188.588C354.2 188.588 353.889 188.899 353.889 189.28C353.889 189.66 354.2 189.972 354.581 189.972ZM354.581 185.591C354.961 185.591 355.272 185.279 355.272 184.899C355.272 184.518 354.961 184.207 354.581 184.207C354.2 184.207 353.889 184.518 353.889 184.899C353.889 185.279 354.2 185.591 354.581 185.591Z" fill="#7C859C"/>
<path d="M356.776 189.91H361.741V189.065H358.083V189.003L359.851 187.112C361.203 185.664 361.603 184.987 361.603 184.115C361.603 182.901 360.619 181.932 359.236 181.932C357.856 181.932 356.807 182.87 356.807 184.253H357.714C357.714 183.358 358.294 182.762 359.205 182.762C360.058 182.762 360.711 183.285 360.711 184.115C360.711 184.841 360.285 185.379 359.374 186.375L356.776 189.218V189.91Z" fill="#7C859C"/>
<path d="M365.787 190.018C367.524 190.018 368.523 188.546 368.523 185.975C368.523 183.423 367.509 181.932 365.787 181.932C364.066 181.932 363.051 183.423 363.051 185.975C363.051 188.546 364.05 190.018 365.787 190.018ZM365.787 189.172C364.642 189.172 363.973 188.023 363.973 185.975C363.973 183.93 364.65 182.762 365.787 182.762C366.925 182.762 367.601 183.93 367.601 185.975C367.601 188.023 366.932 189.172 365.787 189.172Z" fill="#7C859C"/>
<path d="M369.891 189.91H370.798V186.221C370.798 185.356 371.428 184.745 372.135 184.745C372.823 184.745 373.303 185.195 373.303 185.867V189.91H374.226V186.067C374.226 185.306 374.702 184.745 375.532 184.745C376.178 184.745 376.731 185.087 376.731 185.96V189.91H377.638V185.96C377.638 184.572 376.893 183.93 375.84 183.93C374.994 183.93 374.376 184.319 374.072 184.93H374.011C373.718 184.299 373.204 183.93 372.427 183.93C371.659 183.93 371.09 184.299 370.844 184.93H370.767V184.007H369.891V189.91Z" fill="#7C859C"/>
<path d="M166.768 223.728H381.849V224.404H166.768V223.728Z" fill="#CED3DD"/>
<path d="M170.927 215.612H172.352V212.952H173.859C175.677 212.952 176.653 211.861 176.653 210.347C176.653 208.844 175.688 207.741 173.878 207.741H170.927V215.612ZM172.352 211.78V208.933H173.659C174.727 208.933 175.2 209.509 175.2 210.347C175.2 211.184 174.727 211.78 173.667 211.78H172.352Z" fill="#2C354D"/>
<path d="M177.721 215.612H179.113V212.141C179.113 211.392 179.677 210.862 180.442 210.862C180.677 210.862 180.969 210.904 181.088 210.942V209.663C180.961 209.64 180.742 209.624 180.588 209.624C179.912 209.624 179.347 210.009 179.132 210.693H179.07V209.709H177.721V215.612Z" fill="#2C354D"/>
<path d="M184.274 215.727C185.65 215.727 186.595 215.054 186.841 214.028L185.542 213.882C185.354 214.382 184.893 214.643 184.293 214.643C183.394 214.643 182.798 214.051 182.787 213.041H186.899V212.614C186.899 210.543 185.654 209.632 184.201 209.632C182.51 209.632 181.407 210.873 181.407 212.695C181.407 214.547 182.495 215.727 184.274 215.727ZM182.791 212.103C182.833 211.35 183.39 210.716 184.22 210.716C185.019 210.716 185.557 211.3 185.565 212.103H182.791Z" fill="#2C354D"/>
<path d="M187.967 217.825H189.358V214.682H189.416C189.635 215.112 190.092 215.715 191.107 215.715C192.498 215.715 193.54 214.612 193.54 212.668C193.54 210.7 192.467 209.632 191.103 209.632C190.062 209.632 189.627 210.258 189.416 210.685H189.335V209.709H187.967V217.825ZM189.332 212.66C189.332 211.515 189.823 210.773 190.719 210.773C191.645 210.773 192.121 211.561 192.121 212.66C192.121 213.767 191.637 214.574 190.719 214.574C189.831 214.574 189.332 213.805 189.332 212.66Z" fill="#2C354D"/>
<path d="M196.321 215.731C197.247 215.731 197.801 215.296 198.054 214.801H198.1V215.612H199.438V211.661C199.438 210.101 198.166 209.632 197.04 209.632C195.799 209.632 194.846 210.185 194.538 211.261L195.837 211.446C195.975 211.042 196.367 210.696 197.047 210.696C197.693 210.696 198.047 211.027 198.047 211.607V211.63C198.047 212.03 197.628 212.049 196.586 212.161C195.441 212.284 194.346 212.626 194.346 213.955C194.346 215.116 195.195 215.731 196.321 215.731ZM196.682 214.708C196.102 214.708 195.687 214.443 195.687 213.932C195.687 213.398 196.152 213.175 196.775 213.087C197.14 213.037 197.87 212.945 198.051 212.799V213.494C198.051 214.151 197.52 214.708 196.682 214.708Z" fill="#2C354D"/>
<path d="M200.728 215.612H202.12V212.141C202.12 211.392 202.684 210.862 203.449 210.862C203.684 210.862 203.976 210.904 204.095 210.942V209.663C203.968 209.64 203.749 209.624 203.595 209.624C202.919 209.624 202.354 210.009 202.139 210.693H202.077V209.709H200.728V215.612Z" fill="#2C354D"/>
<path d="M204.911 215.612H206.302V209.709H204.911V215.612ZM205.61 208.871C206.052 208.871 206.413 208.533 206.413 208.118C206.413 207.699 206.052 207.361 205.61 207.361C205.164 207.361 204.803 207.699 204.803 208.118C204.803 208.533 205.164 208.871 205.61 208.871Z" fill="#2C354D"/>
<path d="M209.015 212.153C209.015 211.3 209.53 210.808 210.264 210.808C210.983 210.808 211.413 211.281 211.413 212.068V215.612H212.805V211.853C212.808 210.439 212.001 209.632 210.783 209.632C209.899 209.632 209.292 210.055 209.023 210.712H208.954V209.709H207.624V215.612H209.015V212.153Z" fill="#2C354D"/>
<path d="M216.678 217.925C218.272 217.925 219.448 217.195 219.448 215.708V209.709H218.076V210.685H218C217.788 210.258 217.346 209.632 216.305 209.632C214.941 209.632 213.868 210.7 213.868 212.641C213.868 214.566 214.941 215.527 216.301 215.527C217.312 215.527 217.784 214.985 218 214.551H218.069V215.669C218.069 216.515 217.492 216.872 216.701 216.872C215.863 216.872 215.494 216.476 215.325 216.153L214.072 216.457C214.326 217.26 215.175 217.925 216.678 217.925ZM216.689 214.436C215.771 214.436 215.286 213.721 215.286 212.633C215.286 211.561 215.763 210.773 216.689 210.773C217.584 210.773 218.076 211.515 218.076 212.633C218.076 213.759 217.577 214.436 216.689 214.436Z" fill="#2C354D"/>
<path d="M225.917 215.727C227.4 215.727 228.345 214.847 228.445 213.594H227.116C226.996 214.228 226.539 214.593 225.928 214.593C225.06 214.593 224.499 213.867 224.499 212.66C224.499 211.469 225.071 210.754 225.928 210.754C226.597 210.754 227.008 211.184 227.116 211.753H228.445C228.349 210.474 227.35 209.632 225.909 209.632C224.18 209.632 223.088 210.881 223.088 212.683C223.088 214.47 224.153 215.727 225.917 215.727Z" fill="#2C354D"/>
<path d="M230.87 207.741H229.479V215.612H230.87V207.741Z" fill="#2C354D"/>
<path d="M234.768 215.727C236.497 215.727 237.596 214.509 237.596 212.683C237.596 210.854 236.497 209.632 234.768 209.632C233.038 209.632 231.939 210.854 231.939 212.683C231.939 214.509 233.038 215.727 234.768 215.727ZM234.775 214.612C233.818 214.612 233.35 213.759 233.35 212.679C233.35 211.6 233.818 210.735 234.775 210.735C235.717 210.735 236.186 211.6 236.186 212.679C236.186 213.759 235.717 214.612 234.775 214.612Z" fill="#2C354D"/>
<path d="M242.431 213.129C242.431 214.028 241.789 214.474 241.174 214.474C240.505 214.474 240.06 214.001 240.06 213.252V209.709H238.668V213.467C238.668 214.885 239.475 215.688 240.636 215.688C241.52 215.688 242.142 215.223 242.411 214.562H242.473V215.612H243.822V209.709H242.431V213.129Z" fill="#2C354D"/>
<path d="M247.335 215.715C248.349 215.715 248.806 215.112 249.025 214.682H249.11V215.612H250.478V207.741H249.083V210.685H249.025C248.814 210.258 248.38 209.632 247.338 209.632C245.974 209.632 244.902 210.7 244.902 212.668C244.902 214.612 245.943 215.715 247.335 215.715ZM247.723 214.574C246.804 214.574 246.32 213.767 246.32 212.66C246.32 211.561 246.797 210.773 247.723 210.773C248.618 210.773 249.11 211.515 249.11 212.66C249.11 213.805 248.61 214.574 247.723 214.574Z" fill="#2C354D"/>
<path d="M257.376 209.709H256.211V208.295H254.82V209.709H253.983V210.785H254.82V214.067C254.813 215.177 255.62 215.723 256.665 215.692C257.061 215.681 257.334 215.604 257.483 215.554L257.249 214.466C257.172 214.486 257.015 214.52 256.842 214.52C256.492 214.52 256.211 214.397 256.211 213.836V210.785H257.376V209.709Z" fill="#2C354D"/>
<path d="M260.981 215.727C262.357 215.727 263.302 215.054 263.548 214.028L262.249 213.882C262.061 214.382 261.6 214.643 261 214.643C260.101 214.643 259.505 214.051 259.494 213.041H263.606V212.614C263.606 210.543 262.36 209.632 260.908 209.632C259.217 209.632 258.114 210.873 258.114 212.695C258.114 214.547 259.202 215.727 260.981 215.727ZM259.498 212.103C259.54 211.35 260.097 210.716 260.927 210.716C261.726 210.716 262.264 211.3 262.272 212.103H259.498Z" fill="#2C354D"/>
<path d="M269.34 211.269C269.147 210.27 268.348 209.632 266.965 209.632C265.543 209.632 264.574 210.331 264.578 211.423C264.574 212.284 265.105 212.852 266.238 213.087L267.245 213.298C267.787 213.417 268.041 213.636 268.041 213.971C268.041 214.374 267.603 214.678 266.942 214.678C266.304 214.678 265.889 214.401 265.769 213.871L264.413 214.001C264.586 215.085 265.497 215.727 266.945 215.727C268.421 215.727 269.463 214.962 269.466 213.844C269.463 213.002 268.921 212.487 267.806 212.245L266.799 212.03C266.2 211.895 265.962 211.688 265.965 211.346C265.962 210.946 266.404 210.67 266.984 210.67C267.626 210.67 267.964 211.019 268.071 211.407L269.34 211.269Z" fill="#2C354D"/>
<path d="M273.453 209.709H272.288V208.295H270.897V209.709H270.06V210.785H270.897V214.067C270.89 215.177 271.697 215.723 272.742 215.692C273.138 215.681 273.411 215.604 273.56 215.554L273.326 214.466C273.249 214.486 273.092 214.52 272.919 214.52C272.569 214.52 272.288 214.397 272.288 213.836V210.785H273.453V209.709Z" fill="#2C354D"/>
<path d="M345.305 215.719C346.804 215.719 347.903 214.612 347.903 213.106C347.903 211.58 346.842 210.462 345.397 210.462C344.867 210.462 344.352 210.65 344.029 210.908H343.983L344.26 208.587H347.549V207.741H343.46L342.984 211.615L343.875 211.722C344.202 211.488 344.759 211.319 345.243 211.323C346.246 211.331 346.98 212.091 346.98 213.121C346.98 214.132 346.273 214.874 345.305 214.874C344.498 214.874 343.856 214.355 343.783 213.644H342.861C342.918 214.843 343.952 215.719 345.305 215.719Z" fill="#7C859C"/>
<path d="M350.243 212.061C350.243 211.031 350.901 210.447 351.796 210.447C352.649 210.447 353.164 210.985 353.164 211.922V215.612H354.071V211.861C354.071 210.343 353.264 209.632 352.057 209.632C351.127 209.632 350.597 210.02 350.32 210.631H350.243V207.741H349.337V215.612H350.243V212.061Z" fill="#7C859C"/>
<path d="M356.283 215.673C356.663 215.673 356.975 215.362 356.975 214.981C356.975 214.601 356.663 214.29 356.283 214.29C355.902 214.29 355.591 214.601 355.591 214.981C355.591 215.362 355.902 215.673 356.283 215.673ZM356.283 211.292C356.663 211.292 356.975 210.981 356.975 210.6C356.975 210.22 356.663 209.909 356.283 209.909C355.902 209.909 355.591 210.22 355.591 210.6C355.591 210.981 355.902 211.292 356.283 211.292Z" fill="#7C859C"/>
<path d="M361.245 207.741H360.292L358.325 209.048V210.016L360.246 208.74H360.292V215.612H361.245V207.741Z" fill="#7C859C"/>
<path d="M365.86 215.719C367.359 215.719 368.458 214.612 368.458 213.106C368.458 211.58 367.397 210.462 365.952 210.462C365.422 210.462 364.907 210.65 364.584 210.908H364.538L364.815 208.587H368.104V207.741H364.016L363.539 211.615L364.431 211.722C364.757 211.488 365.314 211.319 365.799 211.323C366.802 211.331 367.536 212.091 367.536 213.121C367.536 214.132 366.829 214.874 365.86 214.874C365.053 214.874 364.411 214.355 364.338 213.644H363.416C363.474 214.843 364.507 215.719 365.86 215.719Z" fill="#7C859C"/>
<path d="M369.892 215.612H370.799V211.922C370.799 211.058 371.429 210.447 372.136 210.447C372.824 210.447 373.304 210.896 373.304 211.569V215.612H374.227V211.769C374.227 211.008 374.703 210.447 375.533 210.447C376.179 210.447 376.732 210.789 376.732 211.661V215.612H377.639V211.661C377.639 210.274 376.894 209.632 375.841 209.632C374.995 209.632 374.376 210.02 374.073 210.631H374.011C373.719 210.001 373.204 209.632 372.428 209.632C371.659 209.632 371.091 210.001 370.845 210.631H370.768V209.709H369.892V215.612Z" fill="#7C859C"/>
</g>
<g filter="url(#filter1_d)">
<rect x="186.945" y="74.5918" width="293.055" height="129.184" rx="5" fill="url(#paint1_linear)"/>
<rect x="187.445" y="75.0918" width="292.055" height="128.184" rx="4.5" stroke="#E5E5E5"/>
</g>
<path d="M205.47 96.6046C205.47 94.3564 207.293 92.5339 209.541 92.5339H460.293C462.541 92.5339 464.363 94.3564 464.363 96.6046V118.586C464.363 120.834 462.541 122.657 460.293 122.657H209.541C207.293 122.657 205.47 120.834 205.47 118.586V96.6046Z" fill="#7ACB59" fill-opacity="0.1"/>
<path fill-rule="evenodd" clip-rule="evenodd" d="M460.293 93.3481H209.541C207.742 93.3481 206.284 94.806 206.284 96.6046V118.586C206.284 120.385 207.742 121.843 209.541 121.843H460.293C462.091 121.843 463.549 120.385 463.549 118.586V96.6046C463.549 94.806 462.091 93.3481 460.293 93.3481ZM209.541 92.5339C207.293 92.5339 205.47 94.3564 205.47 96.6046V118.586C205.47 120.834 207.293 122.657 209.541 122.657H460.293C462.541 122.657 464.363 120.834 464.363 118.586V96.6046C464.363 94.3564 462.541 92.5339 460.293 92.5339H209.541Z" fill="#7ACB59"/>
<path d="M200.286 107.066L197.275 104.899C197.136 104.799 196.996 104.746 196.88 104.746C196.654 104.746 196.515 104.936 196.515 105.254V109.938C196.515 110.255 196.654 110.445 196.879 110.445C196.995 110.445 197.133 110.392 197.273 110.291L200.285 108.124C200.479 107.985 200.586 107.797 200.586 107.595C200.586 107.393 200.48 107.206 200.286 107.066Z" fill="#9FA6B5"/>
<path d="M219.385 112.073C222.271 112.073 223.983 110.287 223.983 107.327C223.983 104.376 222.271 102.6 219.449 102.6H216.174V112.073H219.385ZM217.89 110.588V104.084H219.352C221.277 104.084 222.28 105.158 222.28 107.327C222.28 109.506 221.277 110.588 219.301 110.588H217.89Z" fill="#2C354D"/>
<path d="M225.409 112.073H227.083V107.896C227.083 106.994 227.763 106.356 228.684 106.356C228.966 106.356 229.318 106.407 229.461 106.453V104.912C229.308 104.885 229.045 104.866 228.86 104.866C228.046 104.866 227.366 105.329 227.107 106.152H227.032V104.968H225.409V112.073Z" fill="#2C354D"/>
<path d="M232.348 112.216C233.463 112.216 234.129 111.694 234.434 111.097H234.49V112.073H236.099V107.318C236.099 105.44 234.568 104.875 233.213 104.875C231.719 104.875 230.572 105.541 230.202 106.837L231.765 107.059C231.932 106.573 232.403 106.157 233.222 106.157C233.999 106.157 234.425 106.555 234.425 107.253V107.281C234.425 107.762 233.921 107.785 232.667 107.919C231.289 108.067 229.97 108.479 229.97 110.079C229.97 111.476 230.993 112.216 232.348 112.216ZM232.783 110.986C232.084 110.986 231.585 110.667 231.585 110.052C231.585 109.409 232.144 109.14 232.894 109.034C233.333 108.974 234.212 108.863 234.429 108.687V109.524C234.429 110.315 233.791 110.986 232.783 110.986Z" fill="#2C354D"/>
<path d="M239.119 112.073H240.868L242.2 107.272H242.297L243.629 112.073H245.373L247.385 104.968H245.674L244.443 109.936H244.374L243.097 104.968H241.409L240.132 109.964H240.067L238.819 104.968H237.112L239.119 112.073Z" fill="#2C354D"/>
<path d="M253.2 107.91C253.2 106.883 253.819 106.291 254.703 106.291C255.568 106.291 256.086 106.86 256.086 107.808V112.073H257.761V107.549C257.765 105.847 256.794 104.875 255.327 104.875C254.264 104.875 253.533 105.384 253.209 106.175H253.126V104.968H251.525V112.073H253.2V107.91Z" fill="#2C354D"/>
<path d="M262.478 112.212C264.134 112.212 265.272 111.402 265.568 110.167L264.005 109.991C263.778 110.593 263.223 110.907 262.501 110.907C261.419 110.907 260.702 110.195 260.688 108.978H265.637V108.465C265.637 105.972 264.139 104.875 262.39 104.875C260.355 104.875 259.027 106.37 259.027 108.562C259.027 110.792 260.336 112.212 262.478 112.212ZM260.693 107.85C260.743 106.943 261.414 106.18 262.413 106.18C263.376 106.18 264.023 106.883 264.032 107.85H260.693Z" fill="#2C354D"/>
<path d="M268.352 112.073H270.101L271.433 107.272H271.53L272.862 112.073H274.606L276.618 104.968H274.907L273.676 109.936H273.607L272.33 104.968H270.642L269.365 109.964H269.3L268.051 104.968H266.344L268.352 112.073Z" fill="#2C354D"/>
<path d="M280.758 112.073H282.432V104.968H280.758V112.073ZM281.6 103.959C282.132 103.959 282.567 103.552 282.567 103.053C282.567 102.549 282.132 102.142 281.6 102.142C281.063 102.142 280.628 102.549 280.628 103.053C280.628 103.552 281.063 103.959 281.6 103.959Z" fill="#2C354D"/>
<path d="M287.123 112.212C288.909 112.212 290.047 111.153 290.167 109.645H288.567C288.423 110.408 287.873 110.847 287.137 110.847C286.092 110.847 285.416 109.973 285.416 108.52C285.416 107.086 286.106 106.226 287.137 106.226C287.942 106.226 288.437 106.744 288.567 107.429H290.167C290.051 105.888 288.849 104.875 287.114 104.875C285.033 104.875 283.719 106.379 283.719 108.548C283.719 110.699 285 112.212 287.123 112.212Z" fill="#2C354D"/>
<path d="M294.511 112.212C296.593 112.212 297.916 110.745 297.916 108.548C297.916 106.346 296.593 104.875 294.511 104.875C292.43 104.875 291.107 106.346 291.107 108.548C291.107 110.745 292.43 112.212 294.511 112.212ZM294.52 110.87C293.369 110.87 292.804 109.843 292.804 108.544C292.804 107.244 293.369 106.203 294.52 106.203C295.654 106.203 296.218 107.244 296.218 108.544C296.218 109.843 295.654 110.87 294.52 110.87Z" fill="#2C354D"/>
<path d="M300.881 107.91C300.881 106.883 301.501 106.291 302.385 106.291C303.25 106.291 303.768 106.86 303.768 107.808V112.073H305.442V107.549C305.447 105.847 304.475 104.875 303.009 104.875C301.945 104.875 301.214 105.384 300.89 106.175H300.807V104.968H299.207V112.073H300.881V107.91Z" fill="#2C354D"/>
<path d="M312.63 106.846C312.398 105.643 311.436 104.875 309.771 104.875C308.06 104.875 306.894 105.717 306.898 107.031C306.894 108.067 307.532 108.752 308.897 109.034L310.109 109.288C310.761 109.432 311.066 109.695 311.066 110.098C311.066 110.584 310.539 110.949 309.743 110.949C308.975 110.949 308.476 110.616 308.332 109.978L306.7 110.135C306.908 111.439 308.004 112.212 309.748 112.212C311.524 112.212 312.778 111.291 312.782 109.945C312.778 108.932 312.126 108.312 310.784 108.021L309.572 107.762C308.851 107.6 308.564 107.35 308.568 106.938C308.564 106.457 309.096 106.124 309.794 106.124C310.567 106.124 310.974 106.545 311.103 107.012L312.63 106.846Z" fill="#2C354D"/>
<path d="M414.373 112.203C416.464 112.203 417.667 110.431 417.667 107.336C417.667 104.265 416.445 102.47 414.373 102.47C412.301 102.47 411.08 104.265 411.08 107.336C411.08 110.431 412.282 112.203 414.373 112.203ZM414.373 111.185C412.995 111.185 412.19 109.802 412.19 107.336C412.19 104.875 413.004 103.469 414.373 103.469C415.742 103.469 416.556 104.875 416.556 107.336C416.556 109.802 415.752 111.185 414.373 111.185Z" fill="#7C859C"/>
<path d="M420.404 107.799C420.404 106.559 421.195 105.856 422.273 105.856C423.3 105.856 423.92 106.504 423.92 107.632V112.073H425.012V107.558C425.012 105.731 424.04 104.875 422.588 104.875C421.468 104.875 420.83 105.343 420.497 106.078H420.404V102.6H419.313V112.073H420.404V107.799Z" fill="#7C859C"/>
<path d="M427.674 112.147C428.132 112.147 428.507 111.772 428.507 111.314C428.507 110.856 428.132 110.482 427.674 110.482C427.216 110.482 426.841 110.856 426.841 111.314C426.841 111.772 427.216 112.147 427.674 112.147ZM427.674 106.874C428.132 106.874 428.507 106.499 428.507 106.041C428.507 105.583 428.132 105.208 427.674 105.208C427.216 105.208 426.841 105.583 426.841 106.041C426.841 106.499 427.216 106.874 427.674 106.874Z" fill="#7C859C"/>
<path d="M433.647 102.6H432.5L430.132 104.172V105.338L432.445 103.802H432.5V112.073H433.647V102.6Z" fill="#7C859C"/>
<path d="M439.332 112.203C441.423 112.203 442.625 110.431 442.625 107.336C442.625 104.265 441.404 102.47 439.332 102.47C437.259 102.47 436.038 104.265 436.038 107.336C436.038 110.431 437.241 112.203 439.332 112.203ZM439.332 111.185C437.953 111.185 437.148 109.802 437.148 107.336C437.148 104.875 437.963 103.469 439.332 103.469C440.701 103.469 441.515 104.875 441.515 107.336C441.515 109.802 440.71 111.185 439.332 111.185Z" fill="#7C859C"/>
<path d="M444.271 112.073H445.363V107.632C445.363 106.592 446.122 105.856 446.973 105.856C447.801 105.856 448.379 106.397 448.379 107.207V112.073H449.489V107.447C449.489 106.531 450.063 105.856 451.062 105.856C451.839 105.856 452.505 106.268 452.505 107.318V112.073H453.597V107.318C453.597 105.648 452.699 104.875 451.432 104.875C450.414 104.875 449.67 105.343 449.304 106.078H449.23C448.879 105.319 448.259 104.875 447.324 104.875C446.399 104.875 445.715 105.319 445.419 106.078H445.326V104.968H444.271V112.073Z" fill="#7C859C"/>
<path d="M205.47 152.78H464.363V153.594H205.47V152.78Z" fill="#CED3DD"/>
<path d="M211.691 143.01L212.473 140.674H216.035L216.821 143.01H218.653L215.313 133.536H213.195L209.859 143.01H211.691ZM212.935 139.295L214.217 135.479H214.291L215.572 139.295H212.935Z" fill="#2C354D"/>
<path d="M219.696 143.01H221.371V138.69C221.371 137.815 221.954 137.223 222.675 137.223C223.383 137.223 223.869 137.7 223.869 138.43V143.01H225.511V138.578C225.511 137.778 225.987 137.223 226.797 137.223C227.472 137.223 228.009 137.621 228.009 138.5V143.01H229.688V138.241C229.688 136.654 228.772 135.812 227.468 135.812C226.436 135.812 225.65 136.321 225.335 137.112H225.261C224.988 136.307 224.299 135.812 223.341 135.812C222.389 135.812 221.676 136.303 221.38 137.112H221.297V135.905H219.696V143.01Z" fill="#2C354D"/>
<path d="M233.301 143.153C234.416 143.153 235.082 142.631 235.387 142.034H235.443V143.01H237.053V138.255C237.053 136.377 235.521 135.812 234.166 135.812C232.672 135.812 231.525 136.478 231.155 137.774L232.718 137.996C232.885 137.51 233.357 137.094 234.175 137.094C234.953 137.094 235.378 137.491 235.378 138.19V138.218C235.378 138.699 234.874 138.722 233.62 138.856C232.242 139.004 230.923 139.416 230.923 141.016C230.923 142.413 231.946 143.153 233.301 143.153ZM233.736 141.923C233.037 141.923 232.538 141.604 232.538 140.988C232.538 140.346 233.098 140.077 233.847 139.971C234.286 139.911 235.165 139.8 235.383 139.624V140.461C235.383 141.252 234.744 141.923 233.736 141.923Z" fill="#2C354D"/>
<path d="M238.514 143.01H244.347V141.622H240.739V141.562L244.226 137.047V135.905H238.634V137.293H242.177V137.353L238.514 141.946V143.01Z" fill="#2C354D"/>
<path d="M248.686 143.149C250.768 143.149 252.091 141.682 252.091 139.485C252.091 137.283 250.768 135.812 248.686 135.812C246.604 135.812 245.281 137.283 245.281 139.485C245.281 141.682 246.604 143.149 248.686 143.149ZM248.695 141.807C247.543 141.807 246.979 140.78 246.979 139.481C246.979 138.181 247.543 137.14 248.695 137.14C249.829 137.14 250.393 138.181 250.393 139.481C250.393 140.78 249.829 141.807 248.695 141.807Z" fill="#2C354D"/>
<path d="M255.056 138.847C255.056 137.82 255.676 137.228 256.559 137.228C257.424 137.228 257.943 137.797 257.943 138.745V143.01H259.617V138.486C259.622 136.784 258.65 135.812 257.184 135.812C256.12 135.812 255.389 136.321 255.065 137.112H254.982V135.905H253.382V143.01H255.056V138.847Z" fill="#2C354D"/>
<path d="M269.512 136.141H271.164C271.131 134.54 269.767 133.407 267.75 133.407C265.761 133.407 264.267 134.526 264.271 136.201C264.271 137.561 265.238 138.343 266.797 138.745L267.875 139.023C268.897 139.282 269.572 139.601 269.577 140.336C269.572 141.146 268.805 141.687 267.685 141.687C266.612 141.687 265.779 141.206 265.71 140.211H264.022C264.091 142.094 265.493 143.153 267.699 143.153C269.97 143.153 271.289 142.02 271.293 140.35C271.289 138.708 269.933 137.959 268.509 137.621L267.62 137.399C266.843 137.214 266.001 136.885 266.011 136.094C266.015 135.382 266.654 134.859 267.727 134.859C268.749 134.859 269.424 135.336 269.512 136.141Z" fill="#2C354D"/>
<path d="M276 143.139C278.026 143.139 279.502 141.978 279.497 140.378C279.502 139.194 278.762 138.343 277.434 138.153V138.079C278.461 137.857 279.15 137.094 279.146 136.03C279.15 134.586 277.92 133.407 276.028 133.407C274.187 133.407 272.762 134.503 272.725 136.09H274.377C274.404 135.294 275.145 134.799 276.019 134.799C276.902 134.799 277.49 135.336 277.485 136.131C277.49 136.959 276.805 137.51 275.825 137.51H274.987V138.833H275.825C277.023 138.833 277.735 139.434 277.73 140.29C277.735 141.127 277.009 141.701 275.996 141.701C275.043 141.701 274.307 141.206 274.266 140.433H272.526C272.573 142.034 274.002 143.139 276 143.139Z" fill="#2C354D"/>
<path d="M284.074 143.01H285.749V135.905H284.074V143.01ZM284.916 134.896C285.448 134.896 285.883 134.489 285.883 133.99C285.883 133.486 285.448 133.078 284.916 133.078C284.38 133.078 283.945 133.486 283.945 133.99C283.945 134.489 284.38 134.896 284.916 134.896Z" fill="#2C354D"/>
<path d="M289.015 138.847C289.015 137.82 289.635 137.228 290.518 137.228C291.383 137.228 291.901 137.797 291.901 138.745V143.01H293.576V138.486C293.581 136.784 292.609 135.812 291.143 135.812C290.079 135.812 289.348 136.321 289.024 137.112H288.941V135.905H287.34V143.01H289.015V138.847Z" fill="#2C354D"/>
<path d="M298.696 135.905H297.294V134.203H295.62V135.905H294.611V137.2H295.62V141.15C295.61 142.487 296.582 143.144 297.84 143.107C298.317 143.093 298.645 143.001 298.825 142.941L298.543 141.631C298.451 141.655 298.261 141.696 298.053 141.696C297.632 141.696 297.294 141.548 297.294 140.873V137.2H298.696V135.905Z" fill="#2C354D"/>
<path d="M303.035 143.149C304.691 143.149 305.829 142.339 306.125 141.104L304.562 140.928C304.335 141.53 303.78 141.844 303.058 141.844C301.976 141.844 301.259 141.132 301.245 139.915H306.195V139.402C306.195 136.909 304.696 135.812 302.947 135.812C300.912 135.812 299.584 137.306 299.584 139.499C299.584 141.729 300.893 143.149 303.035 143.149ZM301.25 138.787C301.301 137.88 301.971 137.117 302.97 137.117C303.933 137.117 304.58 137.82 304.589 138.787H301.25Z" fill="#2C354D"/>
<path d="M310.571 145.795C312.491 145.795 313.906 144.916 313.906 143.126V135.905H312.255V137.08H312.162C311.908 136.566 311.376 135.812 310.122 135.812C308.48 135.812 307.19 137.098 307.19 139.434C307.19 141.752 308.48 142.908 310.118 142.908C311.334 142.908 311.903 142.256 312.162 141.733H312.245V143.079C312.245 144.097 311.552 144.527 310.599 144.527C309.59 144.527 309.146 144.051 308.943 143.662L307.435 144.028C307.74 144.994 308.762 145.795 310.571 145.795ZM310.585 141.594C309.479 141.594 308.896 140.734 308.896 139.425C308.896 138.134 309.47 137.186 310.585 137.186C311.663 137.186 312.255 138.079 312.255 139.425C312.255 140.78 311.653 141.594 310.585 141.594Z" fill="#2C354D"/>
<path d="M315.492 143.01H317.166V138.833C317.166 137.931 317.846 137.293 318.767 137.293C319.049 137.293 319.401 137.343 319.544 137.39V135.849C319.391 135.822 319.128 135.803 318.943 135.803C318.129 135.803 317.449 136.266 317.19 137.089H317.116V135.905H315.492V143.01Z" fill="#2C354D"/>
<path d="M322.431 143.153C323.546 143.153 324.212 142.631 324.517 142.034H324.573V143.01H326.182V138.255C326.182 136.377 324.651 135.812 323.296 135.812C321.802 135.812 320.655 136.478 320.285 137.774L321.848 137.996C322.015 137.51 322.487 137.094 323.305 137.094C324.082 137.094 324.508 137.491 324.508 138.19V138.218C324.508 138.699 324.004 138.722 322.75 138.856C321.372 139.004 320.053 139.416 320.053 141.016C320.053 142.413 321.076 143.153 322.431 143.153ZM322.866 141.923C322.167 141.923 321.668 141.604 321.668 140.988C321.668 140.346 322.227 140.077 322.977 139.971C323.416 139.911 324.295 139.8 324.513 139.624V140.461C324.513 141.252 323.874 141.923 322.866 141.923Z" fill="#2C354D"/>
<path d="M331.284 135.905H329.882V134.203H328.208V135.905H327.199V137.2H328.208V141.15C328.199 142.487 329.17 143.144 330.428 143.107C330.905 143.093 331.233 143.001 331.413 142.941L331.131 141.631C331.039 141.655 330.849 141.696 330.641 141.696C330.22 141.696 329.882 141.548 329.882 140.873V137.2H331.284V135.905Z" fill="#2C354D"/>
<path d="M332.554 143.01H334.229V135.905H332.554V143.01ZM333.396 134.896C333.928 134.896 334.363 134.489 334.363 133.99C334.363 133.486 333.928 133.078 333.396 133.078C332.859 133.078 332.425 133.486 332.425 133.99C332.425 134.489 332.859 134.896 333.396 134.896Z" fill="#2C354D"/>
<path d="M338.92 143.149C341.001 143.149 342.324 141.682 342.324 139.485C342.324 137.283 341.001 135.812 338.92 135.812C336.838 135.812 335.515 137.283 335.515 139.485C335.515 141.682 336.838 143.149 338.92 143.149ZM338.929 141.807C337.777 141.807 337.213 140.78 337.213 139.481C337.213 138.181 337.777 137.14 338.929 137.14C340.062 137.14 340.626 138.181 340.626 139.481C340.626 140.78 340.062 141.807 338.929 141.807Z" fill="#2C354D"/>
<path d="M345.29 138.847C345.29 137.82 345.909 137.228 346.793 137.228C347.658 137.228 348.176 137.797 348.176 138.745V143.01H349.851V138.486C349.855 136.784 348.884 135.812 347.417 135.812C346.354 135.812 345.623 136.321 345.299 137.112H345.216V135.905H343.615V143.01H345.29V138.847Z" fill="#2C354D"/>
<path d="M418.239 143.139C420.33 143.139 421.533 141.368 421.533 138.273C421.533 135.202 420.312 133.407 418.239 133.407C416.167 133.407 414.946 135.202 414.946 138.273C414.946 141.368 416.148 143.139 418.239 143.139ZM418.239 142.122C416.861 142.122 416.056 140.739 416.056 138.273C416.056 135.812 416.87 134.406 418.239 134.406C419.609 134.406 420.423 135.812 420.423 138.273C420.423 140.739 419.618 142.122 418.239 142.122Z" fill="#7C859C"/>
<path d="M424.271 138.736C424.271 137.496 425.062 136.793 426.139 136.793C427.166 136.793 427.786 137.441 427.786 138.569V143.01H428.878V138.495C428.878 136.668 427.906 135.812 426.454 135.812C425.334 135.812 424.696 136.28 424.363 137.015H424.271V133.536H423.179V143.01H424.271V138.736Z" fill="#7C859C"/>
<path d="M431.54 143.084C431.998 143.084 432.373 142.709 432.373 142.251C432.373 141.793 431.998 141.419 431.54 141.419C431.082 141.419 430.708 141.793 430.708 142.251C430.708 142.709 431.082 143.084 431.54 143.084ZM431.54 137.811C431.998 137.811 432.373 137.436 432.373 136.978C432.373 136.52 431.998 136.145 431.54 136.145C431.082 136.145 430.708 136.52 430.708 136.978C430.708 137.436 431.082 137.811 431.54 137.811Z" fill="#7C859C"/>
<path d="M434.183 143.01H440.16V141.992H435.756V141.918L437.884 139.642C439.512 137.899 439.993 137.084 439.993 136.034C439.993 134.573 438.809 133.407 437.144 133.407C435.483 133.407 434.22 134.536 434.22 136.201H435.312C435.312 135.123 436.01 134.406 437.107 134.406C438.134 134.406 438.92 135.035 438.92 136.034C438.92 136.909 438.406 137.556 437.31 138.754L434.183 142.177V143.01Z" fill="#7C859C"/>
<path d="M445.03 143.139C447.121 143.139 448.323 141.368 448.323 138.273C448.323 135.202 447.102 133.407 445.03 133.407C442.957 133.407 441.736 135.202 441.736 138.273C441.736 141.368 442.939 143.139 445.03 143.139ZM445.03 142.122C443.651 142.122 442.846 140.739 442.846 138.273C442.846 135.812 443.661 134.406 445.03 134.406C446.399 134.406 447.213 135.812 447.213 138.273C447.213 140.739 446.408 142.122 445.03 142.122Z" fill="#7C859C"/>
<path d="M449.969 143.01H451.061V138.569C451.061 137.528 451.82 136.793 452.671 136.793C453.499 136.793 454.077 137.334 454.077 138.144V143.01H455.187V138.384C455.187 137.468 455.761 136.793 456.76 136.793C457.537 136.793 458.203 137.205 458.203 138.255V143.01H459.295V138.255C459.295 136.585 458.397 135.812 457.13 135.812C456.112 135.812 455.368 136.28 455.002 137.015H454.928C454.577 136.256 453.957 135.812 453.022 135.812C452.097 135.812 451.413 136.256 451.117 137.015H451.024V135.905H449.969V143.01Z" fill="#7C859C"/>
<path d="M205.47 183.716H464.363V184.531H205.47V183.716Z" fill="#CED3DD"/>
<path d="M210.475 173.947H212.191V170.746H214.005C216.193 170.746 217.367 169.432 217.367 167.61C217.367 165.801 216.206 164.473 214.028 164.473H210.475V173.947ZM212.191 169.335V165.907H213.764C215.05 165.907 215.619 166.601 215.619 167.61C215.619 168.618 215.05 169.335 213.773 169.335H212.191Z" fill="#2C354D"/>
<path d="M218.654 173.947H220.328V169.77C220.328 168.868 221.008 168.229 221.929 168.229C222.211 168.229 222.563 168.28 222.706 168.327V166.786C222.553 166.758 222.29 166.74 222.105 166.74C221.29 166.74 220.611 167.203 220.351 168.026H220.277V166.842H218.654V173.947Z" fill="#2C354D"/>
<path d="M226.541 174.086C228.197 174.086 229.335 173.276 229.631 172.041L228.068 171.865C227.841 172.467 227.286 172.781 226.564 172.781C225.482 172.781 224.765 172.069 224.751 170.852H229.7V170.339C229.7 167.846 228.202 166.749 226.453 166.749C224.418 166.749 223.09 168.243 223.09 170.436C223.09 172.666 224.399 174.086 226.541 174.086ZM224.756 169.724C224.806 168.817 225.477 168.054 226.476 168.054C227.439 168.054 228.086 168.757 228.095 169.724H224.756Z" fill="#2C354D"/>
<path d="M230.987 176.611H232.661V172.827H232.731C232.994 173.346 233.545 174.072 234.766 174.072C236.441 174.072 237.694 172.744 237.694 170.404C237.694 168.035 236.404 166.749 234.761 166.749C233.508 166.749 232.985 167.503 232.731 168.017H232.634V166.842H230.987V176.611ZM232.629 170.394C232.629 169.016 233.221 168.123 234.299 168.123C235.414 168.123 235.987 169.071 235.987 170.394C235.987 171.727 235.404 172.698 234.299 172.698C233.23 172.698 232.629 171.773 232.629 170.394Z" fill="#2C354D"/>
<path d="M241.042 174.09C242.157 174.09 242.823 173.568 243.129 172.971H243.184V173.947H244.794V169.192C244.794 167.314 243.263 166.749 241.907 166.749C240.413 166.749 239.266 167.415 238.896 168.711L240.46 168.933C240.626 168.447 241.098 168.031 241.917 168.031C242.694 168.031 243.119 168.428 243.119 169.127V169.155C243.119 169.636 242.615 169.659 241.362 169.793C239.983 169.941 238.665 170.353 238.665 171.953C238.665 173.35 239.687 174.09 241.042 174.09ZM241.477 172.86C240.779 172.86 240.279 172.541 240.279 171.925C240.279 171.282 240.839 171.014 241.588 170.908C242.028 170.848 242.907 170.737 243.124 170.561V171.398C243.124 172.189 242.486 172.86 241.477 172.86Z" fill="#2C354D"/>
<path d="M246.347 173.947H248.022V169.77C248.022 168.868 248.702 168.229 249.622 168.229C249.905 168.229 250.256 168.28 250.4 168.327V166.786C250.247 166.758 249.983 166.74 249.798 166.74C248.984 166.74 248.304 167.203 248.045 168.026H247.971V166.842H246.347V173.947Z" fill="#2C354D"/>
<path d="M251.382 173.947H253.056V166.842H251.382V173.947ZM252.224 165.833C252.756 165.833 253.19 165.426 253.19 164.927C253.19 164.422 252.756 164.015 252.224 164.015C251.687 164.015 251.252 164.422 251.252 164.927C251.252 165.426 251.687 165.833 252.224 165.833Z" fill="#2C354D"/>
<path d="M256.323 169.784C256.323 168.757 256.942 168.165 257.826 168.165C258.691 168.165 259.209 168.734 259.209 169.682V173.947H260.883V169.423C260.888 167.721 259.917 166.749 258.45 166.749C257.386 166.749 256.656 167.258 256.332 168.049H256.249V166.842H254.648V173.947H256.323V169.784Z" fill="#2C354D"/>
<path d="M265.545 176.732C267.465 176.732 268.881 175.853 268.881 174.063V166.842H267.229V168.017H267.137C266.882 167.503 266.35 166.749 265.097 166.749C263.455 166.749 262.164 168.035 262.164 170.371C262.164 172.689 263.455 173.845 265.092 173.845C266.309 173.845 266.878 173.193 267.137 172.67H267.22V174.016C267.22 175.034 266.526 175.464 265.573 175.464C264.565 175.464 264.121 174.988 263.917 174.599L262.409 174.965C262.715 175.931 263.737 176.732 265.545 176.732ZM265.559 172.531C264.454 172.531 263.871 171.671 263.871 170.362C263.871 169.071 264.445 168.123 265.559 168.123C266.637 168.123 267.229 169.016 267.229 170.362C267.229 171.717 266.628 172.531 265.559 172.531Z" fill="#2C354D"/>
<path d="M276.667 174.086C278.452 174.086 279.59 173.026 279.71 171.518H278.11C277.966 172.282 277.416 172.721 276.68 172.721C275.635 172.721 274.96 171.847 274.96 170.394C274.96 168.96 275.649 168.1 276.68 168.1C277.485 168.1 277.98 168.618 278.11 169.303H279.71C279.595 167.762 278.392 166.749 276.657 166.749C274.576 166.749 273.262 168.253 273.262 170.422C273.262 172.573 274.543 174.086 276.667 174.086Z" fill="#2C354D"/>
<path d="M282.63 164.473H280.955V173.947H282.63V164.473Z" fill="#2C354D"/>
<path d="M287.32 174.086C289.402 174.086 290.725 172.619 290.725 170.422C290.725 168.22 289.402 166.749 287.32 166.749C285.239 166.749 283.916 168.22 283.916 170.422C283.916 172.619 285.239 174.086 287.32 174.086ZM287.33 172.744C286.178 172.744 285.614 171.717 285.614 170.417C285.614 169.118 286.178 168.077 287.33 168.077C288.463 168.077 289.027 169.118 289.027 170.417C289.027 171.717 288.463 172.744 287.33 172.744Z" fill="#2C354D"/>
<path d="M296.545 170.959C296.545 172.041 295.772 172.578 295.032 172.578C294.227 172.578 293.691 172.009 293.691 171.107V166.842H292.016V171.366C292.016 173.073 292.987 174.039 294.384 174.039C295.448 174.039 296.198 173.48 296.521 172.684H296.596V173.947H298.219V166.842H296.545V170.959Z" fill="#2C354D"/>
<path d="M302.447 174.072C303.669 174.072 304.219 173.346 304.483 172.827H304.585V173.947H306.231V164.473H304.552V168.017H304.483C304.228 167.503 303.706 166.749 302.452 166.749C300.81 166.749 299.519 168.035 299.519 170.404C299.519 172.744 300.773 174.072 302.447 174.072ZM302.915 172.698C301.809 172.698 301.226 171.727 301.226 170.394C301.226 169.071 301.8 168.123 302.915 168.123C303.992 168.123 304.585 169.016 304.585 170.394C304.585 171.773 303.983 172.698 302.915 172.698Z" fill="#2C354D"/>
<path d="M314.534 166.842H313.133V165.139H311.458V166.842H310.45V168.137H311.458V172.087C311.449 173.424 312.42 174.081 313.678 174.044C314.155 174.03 314.483 173.938 314.664 173.877L314.382 172.568C314.289 172.592 314.099 172.633 313.891 172.633C313.47 172.633 313.133 172.485 313.133 171.81V168.137H314.534V166.842Z" fill="#2C354D"/>
<path d="M318.874 174.086C320.53 174.086 321.668 173.276 321.964 172.041L320.4 171.865C320.173 172.467 319.618 172.781 318.897 172.781C317.814 172.781 317.097 172.069 317.083 170.852H322.033V170.339C322.033 167.846 320.534 166.749 318.786 166.749C316.75 166.749 315.423 168.243 315.423 170.436C315.423 172.666 316.732 174.086 318.874 174.086ZM317.088 169.724C317.139 168.817 317.81 168.054 318.809 168.054C319.771 168.054 320.419 168.757 320.428 169.724H317.088Z" fill="#2C354D"/>
<path d="M328.935 168.72C328.704 167.517 327.742 166.749 326.076 166.749C324.365 166.749 323.199 167.591 323.204 168.905C323.199 169.941 323.837 170.626 325.202 170.908L326.414 171.162C327.066 171.306 327.371 171.569 327.371 171.972C327.371 172.457 326.844 172.823 326.048 172.823C325.281 172.823 324.781 172.49 324.638 171.851L323.005 172.009C323.213 173.313 324.309 174.086 326.053 174.086C327.829 174.086 329.083 173.165 329.088 171.819C329.083 170.806 328.431 170.186 327.089 169.895L325.877 169.636C325.156 169.474 324.869 169.224 324.874 168.812C324.869 168.331 325.401 167.998 326.099 167.998C326.872 167.998 327.279 168.419 327.408 168.886L328.935 168.72Z" fill="#2C354D"/>
<path d="M333.886 166.842H332.484V165.139H330.81V166.842H329.802V168.137H330.81V172.087C330.801 173.424 331.772 174.081 333.03 174.044C333.507 174.03 333.835 173.938 334.016 173.877L333.733 172.568C333.641 172.592 333.451 172.633 333.243 172.633C332.822 172.633 332.484 172.485 332.484 171.81V168.137H333.886V166.842Z" fill="#2C354D"/>
<path d="M420.375 174.076C422.179 174.076 423.502 172.744 423.502 170.931C423.502 169.094 422.225 167.748 420.486 167.748C419.847 167.748 419.227 167.975 418.839 168.285H418.783L419.116 165.491H423.076V164.473H418.154L417.581 169.136L418.654 169.266C419.047 168.983 419.718 168.78 420.301 168.785C421.508 168.794 422.391 169.71 422.391 170.949C422.391 172.166 421.54 173.059 420.375 173.059C419.403 173.059 418.631 172.434 418.543 171.579H417.433C417.502 173.022 418.746 174.076 420.375 174.076Z" fill="#7C859C"/>
<path d="M426.319 169.673C426.319 168.433 427.11 167.73 428.188 167.73C429.215 167.73 429.835 168.378 429.835 169.506V173.947H430.926V169.432C430.926 167.605 429.955 166.749 428.502 166.749C427.383 166.749 426.745 167.216 426.412 167.952H426.319V164.473H425.227V173.947H426.319V169.673Z" fill="#7C859C"/>
<path d="M433.589 174.021C434.047 174.021 434.421 173.646 434.421 173.188C434.421 172.73 434.047 172.356 433.589 172.356C433.131 172.356 432.756 172.73 432.756 173.188C432.756 173.646 433.131 174.021 433.589 174.021ZM433.589 168.748C434.047 168.748 434.421 168.373 434.421 167.915C434.421 167.457 434.047 167.082 433.589 167.082C433.131 167.082 432.756 167.457 432.756 167.915C432.756 168.373 433.131 168.748 433.589 168.748Z" fill="#7C859C"/>
<path d="M439.562 164.473H438.415L436.047 166.046V167.212L438.36 165.676H438.415V173.947H439.562V164.473Z" fill="#7C859C"/>
<path d="M445.117 174.076C446.921 174.076 448.244 172.744 448.244 170.931C448.244 169.094 446.967 167.748 445.228 167.748C444.59 167.748 443.97 167.975 443.581 168.285H443.526L443.859 165.491H447.818V164.473H442.897L442.323 169.136L443.396 169.266C443.789 168.983 444.46 168.78 445.043 168.785C446.25 168.794 447.134 169.71 447.134 170.949C447.134 172.166 446.283 173.059 445.117 173.059C444.146 173.059 443.373 172.434 443.285 171.579H442.175C442.244 173.022 443.489 174.076 445.117 174.076Z" fill="#7C859C"/>
<path d="M449.97 173.947H451.061V169.506C451.061 168.465 451.82 167.73 452.671 167.73C453.499 167.73 454.077 168.271 454.077 169.081V173.947H455.188V169.321C455.188 168.405 455.761 167.73 456.76 167.73C457.538 167.73 458.204 168.142 458.204 169.192V173.947H459.295V169.192C459.295 167.522 458.398 166.749 457.13 166.749C456.113 166.749 455.368 167.216 455.003 167.952H454.929C454.577 167.193 453.957 166.749 453.023 166.749C452.098 166.749 451.413 167.193 451.117 167.952H451.024V166.842H449.97V173.947Z" fill="#7C859C"/>
<defs>
<filter id="filter0_d" x="0" y="0" width="405.626" height="288.367" filterUnits="userSpaceOnUse" color-interpolation-filters="sRGB">
<feFlood flood-opacity="0" result="BackgroundImageFix"/>
<feColorMatrix in="SourceAlpha" type="matrix" values="0 0 0 0 0 0 0 0 0 0 0 0 0 0 0 0 0 0 127 0"/>
<feOffset dx="-5" dy="5"/>
<feGaussianBlur stdDeviation="7.5"/>
<feColorMatrix type="matrix" values="0 0 0 0 0 0 0 0 0 0 0 0 0 0 0 0 0 0 0.07 0"/>
<feBlend mode="normal" in2="BackgroundImageFix" result="effect1_dropShadow"/>
<feBlend mode="normal" in="SourceGraphic" in2="effect1_dropShadow" result="shape"/>
</filter>
<filter id="filter1_d" x="151.945" y="54.5918" width="353.055" height="189.184" filterUnits="userSpaceOnUse" color-interpolation-filters="sRGB">
<feFlood flood-opacity="0" result="BackgroundImageFix"/>
<feColorMatrix in="SourceAlpha" type="matrix" values="0 0 0 0 0 0 0 0 0 0 0 0 0 0 0 0 0 0 127 0"/>
<feOffset dx="-5" dy="10"/>
<feGaussianBlur stdDeviation="15"/>
<feColorMatrix type="matrix" values="0 0 0 0 0 0 0 0 0 0 0 0 0 0 0 0 0 0 0.15 0"/>
<feBlend mode="normal" in2="BackgroundImageFix" result="effect1_dropShadow"/>
<feBlend mode="normal" in="SourceGraphic" in2="effect1_dropShadow" result="shape"/>
</filter>
<linearGradient id="paint0_linear" x1="207.688" y1="124.304" x2="207.688" y2="268.367" gradientUnits="userSpaceOnUse">
<stop stop-color="#F9FFF6" stop-opacity="0"/>
<stop offset="1" stop-color="#F9FFF7"/>
</linearGradient>
<linearGradient id="paint1_linear" x1="333.472" y1="74.5918" x2="333.472" y2="203.775" gradientUnits="userSpaceOnUse">
<stop stop-color="white"/>
<stop offset="1" stop-color="#F9FFF7"/>
</linearGradient>
</defs>
</svg>
