<svg width="430" height="284" viewBox="0 0 430 284" fill="none" xmlns="http://www.w3.org/2000/svg">
<g filter="url(#filter0_d)">
<rect x="20" y="10" width="400" height="254" rx="5" fill="white"/>
</g>
<path d="M20 15C20 12.2386 22.2386 10 25 10H415C417.761 10 420 12.2386 420 15V53H20V15Z" fill="#D7DAE2"/>
<path d="M39.9009 27.8196H43.579V37.9125H45.7172V27.8196H49.3953V26.0125H39.9009V27.8196Z" fill="#2C354D"/>
<path d="M53.6259 38.0868C55.7061 38.0868 57.1355 37.07 57.5074 35.5186L55.5434 35.2978C55.2587 36.0531 54.5614 36.4482 53.655 36.4482C52.2953 36.4482 51.3947 35.5534 51.3772 34.0252H57.5945V33.3803C57.5945 30.2484 55.7119 28.8713 53.5155 28.8713C50.9589 28.8713 49.2912 30.7481 49.2912 33.5023C49.2912 36.303 50.9356 38.0868 53.6259 38.0868ZM51.383 32.6075C51.447 31.4686 52.2895 30.5099 53.5446 30.5099C54.7532 30.5099 55.5666 31.3931 55.5783 32.6075H51.383Z" fill="#2C354D"/>
<path d="M61.7786 38.0926C63.179 38.0926 64.0157 37.436 64.3992 36.6865H64.4689V37.9125H66.491V31.9393C66.491 29.5802 64.5677 28.8713 62.8652 28.8713C60.9884 28.8713 59.5474 29.708 59.0825 31.335L61.0465 31.6139C61.2557 31.0038 61.8484 30.4808 62.8768 30.4808C63.853 30.4808 64.3876 30.9805 64.3876 31.8579V31.8928C64.3876 32.4971 63.7542 32.5261 62.1796 32.6946C60.448 32.8806 58.792 33.3977 58.792 35.4082C58.792 37.1629 60.0761 38.0926 61.7786 38.0926ZM62.3248 36.547C61.4474 36.547 60.8199 36.1461 60.8199 35.3733C60.8199 34.5656 61.523 34.2286 62.4643 34.095C63.0163 34.0194 64.1203 33.88 64.3934 33.6592V34.7109C64.3934 35.7045 63.5915 36.547 62.3248 36.547Z" fill="#2C354D"/>
<path d="M68.4424 37.9125H70.5458V32.4854C70.5458 31.3873 71.2779 30.6435 72.1844 30.6435C73.0734 30.6435 73.6835 31.242 73.6835 32.1601V37.9125H75.7463V32.346C75.7463 31.3408 76.3447 30.6435 77.3616 30.6435C78.2099 30.6435 78.884 31.1432 78.884 32.2472V37.9125H80.9932V31.9218C80.9932 29.9288 79.8427 28.8713 78.2041 28.8713C76.9084 28.8713 75.9206 29.5104 75.5255 30.504H75.4325C75.0897 29.493 74.2239 28.8713 73.0211 28.8713C71.8241 28.8713 70.9293 29.4872 70.5574 30.504H70.4529V28.9875H68.4424V37.9125Z" fill="#2C354D"/>
<rect x="41.6748" y="208.775" width="230" height="32.6875" rx="4.5" fill="white" stroke="#CED3DD"/>
<rect x="282.3" y="208.775" width="70.225" height="32.6875" rx="4.5" fill="#7ACB59" stroke="#539B35"/>
<path d="M300.669 221.05H298.893V229.45H300.669V221.05Z" fill="white"/>
<path d="M309.156 221.05H307.388V226.333H307.314L303.688 221.05H302.13V229.45H303.906V224.163H303.967L307.622 229.45H309.156V221.05Z" fill="white"/>
<path d="M312.141 221.05H310.168L313.068 229.45H315.356L318.252 221.05H316.283L314.249 227.432H314.171L312.141 221.05Z" fill="white"/>
<path d="M321.039 221.05H319.263V229.45H321.039V221.05Z" fill="white"/>
<path d="M322.18 222.514H324.752V229.45H326.507V222.514H329.079V221.05H322.18V222.514Z" fill="white"/>
<path d="M330.215 229.45H335.892V227.986H331.991V225.98H335.584V224.516H331.991V222.514H335.875V221.05H330.215V229.45Z" fill="white"/>
<path d="M57.0879 229.45L58.0032 226.873H61.6823L62.5977 229.45H63.7529L60.4115 220.35H59.274L55.9326 229.45H57.0879ZM58.3498 225.895L59.8072 221.79H59.8783L61.3357 225.895H58.3498Z" fill="#9FA6B5"/>
<path d="M67.4802 229.592C68.7954 229.592 69.2398 228.775 69.4708 228.401H69.5952V229.45H70.6083V220.35H69.5597V223.709H69.4708C69.2398 223.354 68.831 222.536 67.498 222.536C65.7739 222.536 64.5831 223.905 64.5831 226.055C64.5831 228.224 65.7739 229.592 67.4802 229.592ZM67.6224 228.65C66.3072 228.65 65.6318 227.495 65.6318 226.038C65.6318 224.598 66.2894 223.478 67.6224 223.478C68.9021 223.478 69.5775 224.509 69.5775 226.038C69.5775 227.584 68.8843 228.65 67.6224 228.65Z" fill="#9FA6B5"/>
<path d="M75.1265 229.592C76.4417 229.592 76.8861 228.775 77.1171 228.401H77.2415V229.45H78.2546V220.35H77.206V223.709H77.1171C76.8861 223.354 76.4773 222.536 75.1443 222.536C73.4203 222.536 72.2294 223.905 72.2294 226.055C72.2294 228.224 73.4203 229.592 75.1265 229.592ZM75.2687 228.65C73.9535 228.65 73.2781 227.495 73.2781 226.038C73.2781 224.598 73.9357 223.478 75.2687 223.478C76.5484 223.478 77.2238 224.509 77.2238 226.038C77.2238 227.584 76.5306 228.65 75.2687 228.65Z" fill="#9FA6B5"/>
<path d="M84.6383 225.344C84.6383 224.154 85.3759 223.478 86.3801 223.478C87.3532 223.478 87.9442 224.114 87.9442 225.184V229.45H88.9928V225.113C88.9928 223.371 88.0642 222.536 86.6823 222.536C85.6514 222.536 85.0116 222.998 84.6916 223.691H84.6028V222.625H83.5897V229.45H84.6383V225.344Z" fill="#9FA6B5"/>
<path d="M93.6454 229.592C95.0317 229.592 96.0448 228.899 96.3647 227.868L95.3517 227.584C95.0851 228.295 94.4674 228.65 93.6454 228.65C92.4146 228.65 91.5659 227.855 91.517 226.393H96.4714V225.949C96.4714 223.407 94.9606 222.536 93.5388 222.536C91.6903 222.536 90.464 223.994 90.464 226.091C90.464 228.188 91.6726 229.592 93.6454 229.592ZM91.517 225.487C91.5881 224.425 92.3391 223.478 93.5388 223.478C94.6763 223.478 95.405 224.331 95.405 225.487H91.517Z" fill="#9FA6B5"/>
<path d="M99.4877 229.45H100.519L102.012 224.207H102.118L103.611 229.45H104.642L106.722 222.625H105.62L104.144 227.833H104.073L102.634 222.625H101.514L100.056 227.85H99.9854L98.5102 222.625H97.4082L99.4877 229.45Z" fill="#9FA6B5"/>
<path d="M114.238 229.592C115.625 229.592 116.638 228.899 116.958 227.868L115.944 227.584C115.678 228.295 115.06 228.65 114.238 228.65C113.007 228.65 112.159 227.855 112.11 226.393H117.064V225.949C117.064 223.407 115.553 222.536 114.132 222.536C112.283 222.536 111.057 223.994 111.057 226.091C111.057 228.188 112.265 229.592 114.238 229.592ZM112.11 225.487C112.181 224.425 112.932 223.478 114.132 223.478C115.269 223.478 115.998 224.331 115.998 225.487H112.11Z" fill="#9FA6B5"/>
<path d="M118.534 229.45H119.583V225.184C119.583 224.185 120.312 223.478 121.129 223.478C121.925 223.478 122.48 223.998 122.48 224.776V229.45H123.546V225.007C123.546 224.127 124.097 223.478 125.057 223.478C125.804 223.478 126.443 223.874 126.443 224.882V229.45H127.492V224.882C127.492 223.278 126.63 222.536 125.413 222.536C124.435 222.536 123.72 222.985 123.369 223.691H123.298C122.96 222.963 122.364 222.536 121.467 222.536C120.578 222.536 119.921 222.963 119.636 223.691H119.547V222.625H118.534V229.45Z" fill="#9FA6B5"/>
<path d="M129.284 232.009H130.333V228.401H130.422C130.653 228.775 131.097 229.592 132.412 229.592C134.119 229.592 135.309 228.224 135.309 226.055C135.309 223.905 134.119 222.536 132.395 222.536C131.062 222.536 130.653 223.354 130.422 223.709H130.297V222.625H129.284V232.009ZM130.315 226.038C130.315 224.509 130.991 223.478 132.27 223.478C133.603 223.478 134.261 224.598 134.261 226.038C134.261 227.495 133.585 228.65 132.27 228.65C131.008 228.65 130.315 227.584 130.315 226.038Z" fill="#9FA6B5"/>
<path d="M137.833 220.35H136.784V229.45H137.833V220.35Z" fill="#9FA6B5"/>
<path d="M142.401 229.592C144.249 229.592 145.493 228.188 145.493 226.073C145.493 223.94 144.249 222.536 142.401 222.536C140.552 222.536 139.308 223.94 139.308 226.073C139.308 228.188 140.552 229.592 142.401 229.592ZM142.401 228.65C140.997 228.65 140.357 227.442 140.357 226.073C140.357 224.704 140.997 223.478 142.401 223.478C143.805 223.478 144.445 224.704 144.445 226.073C144.445 227.442 143.805 228.65 142.401 228.65Z" fill="#9FA6B5"/>
<path d="M147.4 232.009C148.346 232.009 149.013 231.507 149.408 230.445L152.314 222.643L151.168 222.625L149.284 228.064H149.213L147.329 222.625H146.191L148.715 229.486L148.52 230.019C148.138 231.058 147.667 231.156 146.902 230.961L146.636 231.885C146.742 231.938 147.044 232.009 147.4 232.009Z" fill="#9FA6B5"/>
<path d="M156.194 229.592C157.58 229.592 158.593 228.899 158.913 227.868L157.9 227.584C157.633 228.295 157.016 228.65 156.194 228.65C154.963 228.65 154.114 227.855 154.065 226.393H159.02V225.949C159.02 223.407 157.509 222.536 156.087 222.536C154.239 222.536 153.012 223.994 153.012 226.091C153.012 228.188 154.221 229.592 156.194 229.592ZM154.065 225.487C154.136 224.425 154.887 223.478 156.087 223.478C157.225 223.478 157.953 224.331 157.953 225.487H154.065Z" fill="#9FA6B5"/>
<path d="M163.351 229.592C164.738 229.592 165.751 228.899 166.071 227.868L165.058 227.584C164.791 228.295 164.173 228.65 163.351 228.65C162.12 228.65 161.272 227.855 161.223 226.393H166.177V225.949C166.177 223.407 164.667 222.536 163.245 222.536C161.396 222.536 160.17 223.994 160.17 226.091C160.17 228.188 161.378 229.592 163.351 229.592ZM161.223 225.487C161.294 224.425 162.045 223.478 163.245 223.478C164.382 223.478 165.111 224.331 165.111 225.487H161.223Z" fill="#9FA6B5"/>
<path d="M171.184 229.45H172.197V228.401H172.321C172.552 228.775 172.996 229.592 174.312 229.592C176.018 229.592 177.209 228.224 177.209 226.055C177.209 223.905 176.018 222.536 174.294 222.536C172.961 222.536 172.552 223.354 172.321 223.709H172.232V220.35H171.184V229.45ZM172.214 226.038C172.214 224.509 172.89 223.478 174.169 223.478C175.502 223.478 176.16 224.598 176.16 226.038C176.16 227.495 175.485 228.65 174.169 228.65C172.908 228.65 172.214 227.584 172.214 226.038Z" fill="#9FA6B5"/>
<path d="M179.119 232.009C180.065 232.009 180.732 231.507 181.127 230.445L184.033 222.643L182.887 222.625L181.003 228.064H180.932L179.048 222.625H177.91L180.434 229.486L180.238 230.019C179.856 231.058 179.385 231.156 178.621 230.961L178.354 231.885C178.461 231.938 178.763 232.009 179.119 232.009Z" fill="#9FA6B5"/>
<path d="M191.551 229.592C192.937 229.592 193.95 228.899 194.27 227.868L193.257 227.584C192.99 228.295 192.373 228.65 191.551 228.65C190.32 228.65 189.471 227.855 189.422 226.393H194.377V225.949C194.377 223.407 192.866 222.536 191.444 222.536C189.596 222.536 188.369 223.994 188.369 226.091C188.369 228.188 189.578 229.592 191.551 229.592ZM189.422 225.487C189.494 224.425 190.244 223.478 191.444 223.478C192.582 223.478 193.31 224.331 193.31 225.487H189.422Z" fill="#9FA6B5"/>
<path d="M195.847 229.45H196.896V225.184C196.896 224.185 197.624 223.478 198.442 223.478C199.237 223.478 199.793 223.998 199.793 224.776V229.45H200.859V225.007C200.859 224.127 201.41 223.478 202.37 223.478C203.116 223.478 203.756 223.874 203.756 224.882V229.45H204.805V224.882C204.805 223.278 203.943 222.536 202.725 222.536C201.748 222.536 201.032 222.985 200.681 223.691H200.61C200.272 222.963 199.677 222.536 198.779 222.536C197.891 222.536 197.233 222.963 196.949 223.691H196.86V222.625H195.847V229.45Z" fill="#9FA6B5"/>
<path d="M208.605 229.61C209.796 229.61 210.418 228.97 210.631 228.526H210.685V229.45H211.733V224.953C211.733 222.785 210.08 222.536 209.21 222.536C208.179 222.536 207.006 222.892 206.472 224.136L207.468 224.491C207.699 223.994 208.245 223.46 209.245 223.46C210.209 223.46 210.685 223.971 210.685 224.847V224.882C210.685 225.389 210.169 225.344 208.925 225.504C207.659 225.669 206.277 225.949 206.277 227.513C206.277 228.846 207.308 229.61 208.605 229.61ZM208.765 228.668C207.93 228.668 207.326 228.295 207.326 227.566C207.326 226.766 208.054 226.517 208.872 226.411C209.316 226.357 210.507 226.233 210.685 226.02V226.979C210.685 227.833 210.009 228.668 208.765 228.668Z" fill="#9FA6B5"/>
<path d="M213.522 229.45H214.571V222.625H213.522V229.45ZM214.055 221.488C214.464 221.488 214.802 221.168 214.802 220.777C214.802 220.386 214.464 220.066 214.055 220.066C213.647 220.066 213.309 220.386 213.309 220.777C213.309 221.168 213.647 221.488 214.055 221.488Z" fill="#9FA6B5"/>
<path d="M217.415 220.35H216.366V229.45H217.415V220.35Z" fill="#9FA6B5"/>
<rect x="40" y="73" width="360" height="36" rx="5" fill="#F1F2F6"/>
<path d="M94.1858 85.8625V92.8106C94.1811 93.9398 93.6547 94.5428 92.7168 94.5428C91.8507 94.5428 91.2478 94.026 91.243 93.2125H89.7739C89.7739 94.8682 91.0181 95.7965 92.6785 95.7965C94.4777 95.7965 95.6549 94.6959 95.6597 92.8106V85.8625H94.1858Z" fill="#2C354D"/>
<path d="M99.7012 95.8252C100.917 95.8252 101.601 95.2079 101.874 94.6576H101.931V95.6625H103.328V90.7816C103.328 88.6427 101.644 88.2168 100.476 88.2168C99.1461 88.2168 97.9211 88.7527 97.4426 90.0926L98.7872 90.3988C98.9977 89.8772 99.5337 89.3748 100.495 89.3748C101.419 89.3748 101.893 89.8581 101.893 90.6907V90.7242C101.893 91.2458 101.357 91.2362 100.036 91.3894C98.6436 91.5521 97.2177 91.9157 97.2177 93.5857C97.2177 95.0309 98.3039 95.8252 99.7012 95.8252ZM100.012 94.6768C99.2035 94.6768 98.6197 94.3131 98.6197 93.6049C98.6197 92.8393 99.2992 92.5665 100.127 92.4564C100.591 92.3942 101.692 92.2698 101.898 92.0641V93.0115C101.898 93.8824 101.204 94.6768 100.012 94.6768Z" fill="#2C354D"/>
<path d="M105.099 95.6625H106.53V91.131C106.53 90.1404 107.224 89.4514 108.037 89.4514C108.832 89.4514 109.382 89.9777 109.382 90.7769V95.6625H110.808V90.9778C110.808 90.0926 111.349 89.4514 112.282 89.4514C113.038 89.4514 113.66 89.8725 113.66 90.8678V95.6625H115.091V90.7338C115.091 89.0542 114.153 88.2168 112.822 88.2168C111.765 88.2168 110.971 88.724 110.617 89.5088H110.54C110.219 88.7049 109.545 88.2168 108.564 88.2168C107.592 88.2168 106.87 88.7001 106.564 89.5088H106.473V88.3125H105.099V95.6625Z" fill="#2C354D"/>
<path d="M120.041 95.8108C121.644 95.8108 122.778 95.0213 123.104 93.825L121.75 93.581C121.491 94.2748 120.869 94.6289 120.056 94.6289C118.831 94.6289 118.008 93.8346 117.969 92.4182H123.195V91.9109C123.195 89.2552 121.606 88.2168 119.941 88.2168C117.893 88.2168 116.543 89.7768 116.543 92.0354C116.543 94.3179 117.874 95.8108 120.041 95.8108ZM117.974 91.3463C118.032 90.3031 118.788 89.3987 119.95 89.3987C121.061 89.3987 121.788 90.2218 121.793 91.3463H117.974Z" fill="#2C354D"/>
<path d="M130.155 90.1069C129.859 88.9633 128.964 88.2168 127.375 88.2168C125.715 88.2168 124.537 89.0925 124.537 90.394C124.537 91.4372 125.169 92.1311 126.547 92.4373L127.791 92.7101C128.5 92.868 128.83 93.1838 128.83 93.6432C128.83 94.2126 128.222 94.6576 127.284 94.6576C126.428 94.6576 125.877 94.2892 125.705 93.5666L124.322 93.7772C124.561 95.0787 125.643 95.8108 127.294 95.8108C129.069 95.8108 130.299 94.8682 130.299 93.5379C130.299 92.4995 129.638 91.8583 128.289 91.5473L127.121 91.2793C126.313 91.0879 125.963 90.8151 125.968 90.3175C125.963 89.7528 126.576 89.3509 127.389 89.3509C128.279 89.3509 128.691 89.8438 128.858 90.3366L130.155 90.1069Z" fill="#2C354D"/>
<path d="M135.283 95.6625H136.762V91.3894H140.925V90.1213H136.762V87.1354H141.36V85.8625H135.283V95.6625Z" fill="#2C354D"/>
<path d="M145.486 95.8108C147.558 95.8108 148.912 94.2939 148.912 92.021C148.912 89.7337 147.558 88.2168 145.486 88.2168C143.414 88.2168 142.06 89.7337 142.06 92.021C142.06 94.2939 143.414 95.8108 145.486 95.8108ZM145.491 94.6098C144.136 94.6098 143.505 93.4278 143.505 92.0162C143.505 90.6094 144.136 89.4131 145.491 89.4131C146.835 89.4131 147.467 90.6094 147.467 92.0162C147.467 93.4278 146.835 94.6098 145.491 94.6098Z" fill="#2C354D"/>
<path d="M150.374 95.6625H151.805V91.174C151.805 90.2122 152.547 89.5184 153.561 89.5184C153.858 89.5184 154.193 89.571 154.308 89.6045V88.2359C154.164 88.2168 153.882 88.2024 153.7 88.2024C152.839 88.2024 152.102 88.6905 151.834 89.4801H151.757V88.3125H150.374V95.6625Z" fill="#2C354D"/>
<path d="M157.899 95.8061C159.239 95.8061 159.765 94.9878 160.024 94.5189H160.144V95.6625H161.541V85.8625H160.11V89.504H160.024C159.765 89.0494 159.277 88.2168 157.909 88.2168C156.134 88.2168 154.827 89.6189 154.827 92.0019C154.827 94.3801 156.114 95.8061 157.899 95.8061ZM158.215 94.5858C156.937 94.5858 156.272 93.4613 156.272 91.9875C156.272 90.528 156.923 89.4322 158.215 89.4322C159.464 89.4322 160.134 90.4515 160.134 91.9875C160.134 93.5331 159.45 94.5858 158.215 94.5858Z" fill="#2C354D"/>
<circle cx="67.1627" cy="90.85" r="10.0875" fill="white" stroke="#CED3DD"/>
<path d="M68.0977 86.3H67.0805L64.9805 87.6945V88.7281L67.0313 87.3664H67.0805V94.7H68.0977V86.3Z" fill="#2C354D"/>
<path opacity="0.7" d="M39.25 77.5625C39.25 74.8011 41.4886 72.5625 44.25 72.5625H45.025V109.138H44.25C41.4886 109.138 39.25 106.899 39.25 104.138V77.5625Z" fill="#7ACB59"/>
<path d="M182.5 87L183.891 89.6335L187 90.0558L184.75 92.1058L185.281 95L182.5 93.6337L179.719 95L180.25 92.1058L178 90.0558L181.11 89.6335L182.5 87Z" fill="#7ACB59" stroke="#7ACB59" stroke-miterlimit="10" stroke-linecap="round" stroke-linejoin="round"/>
<path d="M98.5164 131.399C98.1814 129.303 96.5401 128.078 94.4682 128.078C91.932 128.078 90.061 129.978 90.061 133.112C90.061 136.247 91.9225 138.146 94.4682 138.146C96.6215 138.146 98.1958 136.797 98.5164 134.859L97.0234 134.854C96.7698 136.108 95.7171 136.797 94.4777 136.797C92.7981 136.797 91.5301 135.51 91.5301 133.112C91.5301 130.734 92.7934 129.428 94.4825 129.428C95.7314 129.428 96.7794 130.131 97.0234 131.399H98.5164Z" fill="#2C354D"/>
<path d="M101.467 128.212H100.036V138.012H101.467V128.212Z" fill="#2C354D"/>
<path d="M105.396 138.175C106.611 138.175 107.296 137.558 107.568 137.008H107.626V138.012H109.023V133.132C109.023 130.993 107.339 130.567 106.171 130.567C104.841 130.567 103.616 131.103 103.137 132.443L104.482 132.749C104.693 132.227 105.228 131.725 106.19 131.725C107.114 131.725 107.588 132.208 107.588 133.041V133.074C107.588 133.596 107.052 133.586 105.731 133.739C104.338 133.902 102.912 134.266 102.912 135.936C102.912 137.381 103.999 138.175 105.396 138.175ZM105.707 137.027C104.898 137.027 104.314 136.663 104.314 135.955C104.314 135.189 104.994 134.916 105.822 134.806C106.286 134.744 107.387 134.62 107.592 134.414V135.362C107.592 136.232 106.898 137.027 105.707 137.027Z" fill="#2C354D"/>
<path d="M110.794 138.012H112.225V130.662H110.794V138.012ZM111.517 129.528C112.009 129.528 112.421 129.146 112.421 128.677C112.421 128.208 112.009 127.82 111.517 127.82C111.019 127.82 110.612 128.208 110.612 128.677C110.612 129.146 111.019 129.528 111.517 129.528Z" fill="#2C354D"/>
<path d="M114.015 138.012H115.446V133.524C115.446 132.562 116.187 131.868 117.202 131.868C117.498 131.868 117.833 131.921 117.948 131.954V130.586C117.805 130.567 117.522 130.552 117.341 130.552C116.479 130.552 115.742 131.041 115.474 131.83H115.398V130.662H114.015V138.012Z" fill="#2C354D"/>
<path d="M121.956 138.161C123.559 138.161 124.693 137.371 125.019 136.175L123.665 135.931C123.406 136.625 122.784 136.979 121.971 136.979C120.746 136.979 119.923 136.185 119.884 134.768H125.11V134.261C125.11 131.605 123.521 130.567 121.856 130.567C119.808 130.567 118.458 132.127 118.458 134.385C118.458 136.668 119.789 138.161 121.956 138.161ZM119.889 133.696C119.946 132.653 120.703 131.749 121.865 131.749C122.975 131.749 123.703 132.572 123.708 133.696H119.889Z" fill="#2C354D"/>
<path d="M130.109 138.012H136.028V136.74H131.587V128.212H130.109V138.012Z" fill="#2C354D"/>
<path d="M137.465 138.012H138.896V130.662H137.465V138.012ZM138.188 129.528C138.68 129.528 139.092 129.146 139.092 128.677C139.092 128.208 138.68 127.82 138.188 127.82C137.69 127.82 137.283 128.208 137.283 128.677C137.283 129.146 137.69 129.528 138.188 129.528Z" fill="#2C354D"/>
<path d="M144.117 130.662H142.61V128.902H141.179V130.662H140.102V131.811H141.179V136.151C141.174 137.486 142.193 138.132 143.323 138.108C143.777 138.103 144.083 138.017 144.251 137.955L143.992 136.773C143.897 136.792 143.72 136.835 143.49 136.835C143.026 136.835 142.61 136.682 142.61 135.854V131.811H144.117V130.662Z" fill="#2C354D"/>
<path d="M148.996 130.662H147.488V128.902H146.058V130.662H144.981V131.811H146.058V136.151C146.053 137.486 147.072 138.132 148.201 138.108C148.656 138.103 148.962 138.017 149.13 137.955L148.871 136.773C148.776 136.792 148.599 136.835 148.369 136.835C147.905 136.835 147.488 136.682 147.488 135.854V131.811H148.996V130.662Z" fill="#2C354D"/>
<path d="M152.032 128.212H150.602V138.012H152.032V128.212Z" fill="#2C354D"/>
<path d="M156.99 138.161C158.593 138.161 159.727 137.371 160.053 136.175L158.698 135.931C158.44 136.625 157.818 136.979 157.005 136.979C155.78 136.979 154.957 136.185 154.918 134.768H160.144V134.261C160.144 131.605 158.555 130.567 156.89 130.567C154.842 130.567 153.492 132.127 153.492 134.385C153.492 136.668 154.823 138.161 156.99 138.161ZM154.923 133.696C154.98 132.653 155.736 131.749 156.899 131.749C158.009 131.749 158.737 132.572 158.742 133.696H154.923Z" fill="#2C354D"/>
<path d="M165.027 130.662H163.52V128.902H162.089V130.662H161.013V131.811H162.089V136.151C162.084 137.486 163.104 138.132 164.233 138.108C164.688 138.103 164.994 138.017 165.161 137.955L164.903 136.773C164.807 136.792 164.63 136.835 164.4 136.835C163.936 136.835 163.52 136.682 163.52 135.854V131.811H165.027V130.662Z" fill="#2C354D"/>
<path d="M169.492 138.161C171.564 138.161 172.918 136.644 172.918 134.371C172.918 132.084 171.564 130.567 169.492 130.567C167.42 130.567 166.066 132.084 166.066 134.371C166.066 136.644 167.42 138.161 169.492 138.161ZM169.497 136.96C168.143 136.96 167.511 135.778 167.511 134.366C167.511 132.959 168.143 131.763 169.497 131.763C170.842 131.763 171.473 132.959 171.473 134.366C171.473 135.778 170.842 136.96 169.497 136.96Z" fill="#2C354D"/>
<path d="M175.812 133.648C175.812 132.476 176.529 131.806 177.525 131.806C178.496 131.806 179.085 132.443 179.085 133.51V138.012H180.515V133.337C180.515 131.519 179.515 130.567 178.013 130.567C176.907 130.567 176.185 131.079 175.845 131.859H175.754V130.662H174.381V138.012H175.812V133.648Z" fill="#2C354D"/>
<circle cx="67.1627" cy="133.2" r="10.0875" fill="white" stroke="#CED3DD"/>
<path d="M64.1821 137.05H69.4813V136.148H65.5767V136.082L67.4634 134.064C68.9071 132.518 69.3337 131.796 69.3337 130.865C69.3337 129.569 68.2837 128.535 66.8071 128.535C65.3347 128.535 64.2149 129.536 64.2149 131.012H65.1829C65.1829 130.057 65.8022 129.421 66.7743 129.421C67.6849 129.421 68.3821 129.979 68.3821 130.865C68.3821 131.64 67.9269 132.214 66.9548 133.277L64.1821 136.312V137.05Z" fill="#2C354D"/>
<path d="M93.549 177.475C96.535 177.475 98.2624 175.623 98.2624 172.561C98.2624 169.513 96.535 167.675 93.6495 167.675H90.3765V177.475H93.549ZM91.8551 176.183V168.967H93.5586C95.7023 168.967 96.8077 170.249 96.8077 172.561C96.8077 174.881 95.7023 176.183 93.4677 176.183H91.8551Z" fill="#2C354D"/>
<path d="M103.019 177.623C104.622 177.623 105.756 176.834 106.082 175.638L104.728 175.393C104.469 176.087 103.847 176.441 103.034 176.441C101.809 176.441 100.986 175.647 100.947 174.231H106.173V173.723C106.173 171.068 104.584 170.029 102.919 170.029C100.871 170.029 99.5213 171.589 99.5213 173.848C99.5213 176.13 100.852 177.623 103.019 177.623ZM100.952 173.159C101.01 172.116 101.766 171.211 102.928 171.211C104.039 171.211 104.766 172.034 104.771 173.159H100.952Z" fill="#2C354D"/>
<path d="M113.133 171.919C112.836 170.776 111.942 170.029 110.353 170.029C108.693 170.029 107.515 170.905 107.515 172.207C107.515 173.25 108.147 173.944 109.525 174.25L110.769 174.523C111.477 174.68 111.808 174.996 111.808 175.456C111.808 176.025 111.2 176.47 110.262 176.47C109.405 176.47 108.855 176.102 108.683 175.379L107.3 175.59C107.539 176.891 108.621 177.623 110.272 177.623C112.047 177.623 113.277 176.681 113.277 175.35C113.277 174.312 112.616 173.671 111.267 173.36L110.099 173.092C109.291 172.9 108.941 172.628 108.946 172.13C108.941 171.565 109.554 171.163 110.367 171.163C111.257 171.163 111.669 171.656 111.836 172.149L113.133 171.919Z" fill="#2C354D"/>
<path d="M114.715 177.475H116.146V172.943C116.146 171.953 116.84 171.264 117.653 171.264C118.447 171.264 118.998 171.79 118.998 172.589V177.475H120.424V172.79C120.424 171.905 120.964 171.264 121.898 171.264C122.654 171.264 123.276 171.685 123.276 172.68V177.475H124.706V172.546C124.706 170.867 123.769 170.029 122.438 170.029C121.381 170.029 120.586 170.537 120.232 171.321H120.156C119.835 170.517 119.16 170.029 118.18 170.029C117.208 170.029 116.486 170.513 116.179 171.321H116.088V170.125H114.715V177.475Z" fill="#2C354D"/>
<path d="M129.585 177.623C131.657 177.623 133.012 176.106 133.012 173.833C133.012 171.546 131.657 170.029 129.585 170.029C127.513 170.029 126.159 171.546 126.159 173.833C126.159 176.106 127.513 177.623 129.585 177.623ZM129.59 176.422C128.236 176.422 127.604 175.24 127.604 173.829C127.604 172.422 128.236 171.226 129.59 171.226C130.935 171.226 131.566 172.422 131.566 173.829C131.566 175.24 130.935 176.422 129.59 176.422Z" fill="#2C354D"/>
<path d="M135.905 173.111C135.905 171.939 136.622 171.269 137.618 171.269C138.589 171.269 139.178 171.905 139.178 172.972V177.475H140.608V172.8C140.608 170.982 139.608 170.029 138.106 170.029C137 170.029 136.278 170.541 135.938 171.321H135.847V170.125H134.474V177.475H135.905V173.111Z" fill="#2C354D"/>
<path d="M145.144 177.619C146.484 177.619 147.01 176.8 147.269 176.331H147.388V177.475H148.785V167.675H147.355V171.317H147.269C147.01 170.862 146.522 170.029 145.154 170.029C143.378 170.029 142.072 171.431 142.072 173.814C142.072 176.193 143.359 177.619 145.144 177.619ZM145.46 176.398C144.182 176.398 143.517 175.274 143.517 173.8C143.517 172.341 144.168 171.245 145.46 171.245C146.709 171.245 147.379 172.264 147.379 173.8C147.379 175.346 146.694 176.398 145.46 176.398Z" fill="#2C354D"/>
<path d="M154.239 177.475H155.718V173.202H160.603V177.475H162.087V167.675H160.603V171.934H155.718V167.675H154.239V177.475Z" fill="#2C354D"/>
<path d="M168.646 174.427C168.651 175.676 167.723 176.269 166.919 176.269C166.034 176.269 165.421 175.628 165.421 174.628V170.125H163.99V174.8C163.99 176.623 164.991 177.571 166.402 177.571C167.507 177.571 168.259 176.987 168.599 176.202H168.675V177.475H170.082V170.125H168.646V174.427Z" fill="#2C354D"/>
<path d="M171.87 177.475H173.3V172.943C173.3 171.953 173.994 171.264 174.808 171.264C175.602 171.264 176.152 171.79 176.152 172.589V177.475H177.578V172.79C177.578 171.905 178.119 171.264 179.052 171.264C179.808 171.264 180.43 171.685 180.43 172.68V177.475H181.861V172.546C181.861 170.867 180.923 170.029 179.593 170.029C178.535 170.029 177.741 170.537 177.387 171.321H177.31C176.99 170.517 176.315 170.029 175.334 170.029C174.363 170.029 173.64 170.513 173.334 171.321H173.243V170.125H171.87V177.475Z" fill="#2C354D"/>
<path d="M186.812 177.623C188.415 177.623 189.549 176.834 189.874 175.638L188.52 175.393C188.262 176.087 187.64 176.441 186.826 176.441C185.601 176.441 184.778 175.647 184.74 174.231H189.965V173.723C189.965 171.068 188.376 170.029 186.711 170.029C184.663 170.029 183.314 171.589 183.314 173.848C183.314 176.13 184.644 177.623 186.812 177.623ZM184.744 173.159C184.802 172.116 185.558 171.211 186.721 171.211C187.831 171.211 188.558 172.034 188.563 173.159H184.744Z" fill="#2C354D"/>
<circle cx="67.1627" cy="172.663" r="10.0875" fill="white" stroke="#CED3DD"/>
<path d="M67.0202 176.627C68.6485 176.627 69.8585 175.606 69.8585 174.232C69.8585 173.166 69.2269 172.39 68.1687 172.214V172.148C69.0177 171.89 69.5468 171.193 69.5468 170.245C69.5468 169.056 68.6075 167.998 67.053 167.998C65.6011 167.998 64.3952 168.892 64.346 170.213H65.3304C65.3673 169.376 66.163 168.884 67.0366 168.884C67.9636 168.884 68.5624 169.446 68.5624 170.295C68.5624 171.18 67.8692 171.755 66.8726 171.755H66.1999V172.657H66.8726C68.1481 172.657 68.8577 173.305 68.8577 174.232C68.8577 175.122 68.0825 175.725 67.0038 175.725C66.0317 175.725 65.2606 175.225 65.1991 174.413H64.1655C64.2271 175.733 65.3919 176.627 67.0202 176.627Z" fill="#2C354D"/>
<defs>
<filter id="filter0_d" x="0" y="0" width="430" height="284" filterUnits="userSpaceOnUse" color-interpolation-filters="sRGB">
<feFlood flood-opacity="0" result="BackgroundImageFix"/>
<feColorMatrix in="SourceAlpha" type="matrix" values="0 0 0 0 0 0 0 0 0 0 0 0 0 0 0 0 0 0 127 0"/>
<feOffset dx="-5" dy="5"/>
<feGaussianBlur stdDeviation="7.5"/>
<feColorMatrix type="matrix" values="0 0 0 0 0 0 0 0 0 0 0 0 0 0 0 0 0 0 0.07 0"/>
<feBlend mode="normal" in2="BackgroundImageFix" result="effect1_dropShadow"/>
<feBlend mode="normal" in="SourceGraphic" in2="effect1_dropShadow" result="shape"/>
</filter>
</defs>
</svg>
